/* XPM */
static char *c8dd5d06ae104f76bbe71388c109e372OTvq7XyWQiIa3TWs[] = {
/* columns rows colors chars-per-pixel */
"64 64 125 2 ",
"   c #0F0E0A",
".  c #110F0C",
"X  c #11110E",
"o  c #141412",
"O  c #1A1514",
"+  c #171817",
"@  c #1B1815",
"#  c #171A1B",
"$  c #1A1B1D",
"%  c #231716",
"&  c #241817",
"*  c #281718",
"=  c #241919",
"-  c #2B1C1A",
";  c #301F1B",
":  c #24201F",
">  c #2B221E",
",  c #31221E",
"<  c #37291F",
"1  c #382B1F",
"2  c #1C1F21",
"3  c #1E2124",
"4  c #202427",
"5  c #2D2320",
"6  c #21262B",
"7  c #24292E",
"8  c #332520",
"9  c #352820",
"0  c #3A2C22",
"q  c #3D3122",
"w  c #262B31",
"e  c #292E34",
"r  c #2B3037",
"t  c #2D333B",
"y  c #412E23",
"u  c #443425",
"i  c #493627",
"p  c #493826",
"a  c #4B3728",
"s  c #4D3B28",
"d  c #533E2A",
"f  c #2F3740",
"g  c #2F3944",
"h  c #323B46",
"j  c #343E49",
"k  c #36414E",
"l  c #38414E",
"z  c #374250",
"x  c #394554",
"c  c #3C4957",
"v  c #3D4A5A",
"b  c #404E5E",
"n  c #414F61",
"m  c #455364",
"M  c #485667",
"N  c #465569",
"B  c #485769",
"V  c #48586D",
"C  c #4C5D73",
"Z  c #516276",
"A  c #52647A",
"S  c #56687E",
"D  c #536780",
"F  c #566B85",
"G  c #576C87",
"H  c #576A80",
"J  c #586D87",
"K  c #586A81",
"L  c #586D88",
"P  c #596F8B",
"I  c #59708C",
"U  c #5B718E",
"Y  c #5B728E",
"T  c #5C7390",
"R  c #5D7492",
"E  c #5D7593",
"W  c #5E7592",
"Q  c #5E7593",
"!  c #5E7694",
"~  c #5F7695",
"^  c #617996",
"/  c #607897",
"(  c #617997",
")  c #607898",
"_  c #607998",
"`  c #617999",
"'  c #617A99",
"]  c #617A9A",
"[  c #627A9A",
"{  c #637B9A",
"}  c #627B9B",
"|  c #637B9B",
" . c #637B9C",
".. c #637C9C",
"X. c #637C9D",
"o. c #647D9D",
"O. c #66809F",
"+. c #6781A1",
"@. c #6781A2",
"#. c #6882A2",
"$. c #6882A3",
"%. c #6B85A6",
"&. c #6C87AA",
"*. c #6D89AB",
"=. c #718EB2",
"-. c #718EB3",
";. c #728EB3",
":. c #728FB4",
">. c #7491B6",
",. c #7593B9",
"<. c #7694BA",
"1. c #7695BB",
"2. c #7795BB",
"3. c #7896BD",
"4. c #7897BD",
"5. c #7897BE",
"6. c #7998BE",
"7. c #7A9AC1",
"8. c #7B9AC2",
"9. c #7B9BC3",
"0. c #7C9BC3",
"q. c #7C9CC4",
"w. c #7E9EC7",
"e. c #7E9FC8",
"r. c #7FA0C9",
/* pixels */
"o o o o o o o o o o o o o o o o o o o o o o o o o o o o o o o o o o o o o o o o o o o o o o o o o o o o o o o o o o o o o o o o ",
"o o o o o o o o o o o o o o o o o o X .   2 j m C A A A A A A A A A A A A A A C m j 2   . X o o o o o o o o o o o o o o o o o o ",
"o o o o o o o o o o o o o o X X X $ t j j m E =.8.e.e.e.e.e.e.e.e.e.e.e.e.e.e.8.=.E m j j t $ X X X o o o o o o o o o o o o o o ",
"o o o o o o o o o o o o o o $ 2 $ h / 6.3.<.<.,.>.:.=.=.=.=.=.=.=.=.=.=.=.=.:.>.,.<.<.3.6./ h $ 2 $ o o o o o o o o o o o o o o ",
"o o o o o o o o o o o X X w A @.O.%.,.8.0.<.&.E C m c z z z z z z z z z z c m C E &.<.0.8.,.%.O.@.A w X X o o o o o o o o o o o ",
"o o o o o o o o o X . 3 c J =.e.r.8.:.#.T A N v j t e e e e e e e e e e e e t j v N A T #.:.8.r.e.=.J c 3 . X o o o o o o o o o ",
"o o o o o o o o o $ 6 v #.q.q.<.*.) G C x h t e e r r e e w w w w w w e e r r e e t h x C G ) *.<.q.q.#.v 6 $ o o o o o o o o o ",
"$ $ $ $ $ $ $ $ 2 t C o.:.3.3.@.C l h t t r e e e e e 7 3 $ $ $ $ $ $ 3 7 e e e e e r t t h l C @.3.3.:.o.C t 2 $ $ $ $ $ $ o o ",
"$ $ $ $ $ $ # w n F E o.@./ A m j t r r r e 6 2 $ $ $ $ o o o o o o o o $ $ $ $ 2 6 e r r r t j m A / @.o.E F n w # $ $ $ $ o o ",
"$ $ $ $ # 6 j N Y X. .E D N l t t e 7 6 4 3 $ o o o o o o o o o o o o o o o o o o $ 3 4 6 7 e t t l N D E  .X.Y N j 6 # $ $ o o ",
"$ $ $ $ 3 g A ) ) ! Y A v h t e e 7 2 # o o o o o O O O O o o o o o o O O O O o o o o o # 2 7 e e t h v A Y ! ) ) A g 3 $ $ o o ",
"$ $ $ 6 g m G ) ) P N z f t r w 3 $ o o o o o O % * * * * % O o o O % * * * * % O o o o o o $ 3 w r t f z N P ) ) G m g 6 # o o ",
"o o X 7 m P ! ) X.F x t t w 3 $ o o o o @ % % % * * > , , - * % % * - , , - * * % % % @ o o o o $ 3 w t t x F X.) ! P N 7 X X X ",
"j h h v F ) ) Y A m h e 7 4 + o o o O % - - - - * - , 8 8 , * * * * , 8 8 , * * - - - * % O o o o + 4 7 e h m A Y )  .F v h h j ",
") ) ) ) / ) ) D l e e 7 2 # o o o O * - , 8 8 , * * , 8 8 , * * * * , 8 8 , * * , 8 8 , - * O o o o # 2 7 e e l D ) ) / ) ) ) ) ",
"/ / / / / ) ) D l 7 3 $ o o o O % * > , 8 8 8 , * * , 8 8 , * * * - , 8 8 , * * , 8 8 8 , > * % O o o o $ 3 7 l D ) ) / / / / / ",
"V V V V V V V n h 7 $ o o o @ % * * , 8 8 8 8 , * - < 0 0 < - * * - < 0 0 < - * , 8 8 8 8 , - * % @ o o o $ 7 h n V V V V V V V ",
"z z z z z z z j r 4 $ o O @ * * * - , 9 9 9 9 , - - 1 q q 0 , - - , 0 q q 1 - - , 9 9 9 9 , - * * * @ O o $ 4 r j x x z z z z z ",
"z z z z z z z h 6 # o O & * * * * - < q q q q < - - 0 u u 0 9 8 8 9 0 u u 0 - - < q q q q < - * * * * & O o # 6 h z z z z z z z ",
"t t t t t t t e $ o o O - , , > * * , 8 8 8 8 , * , u d s i 0 8 8 0 i s d u , * , 8 8 9 8 , * * > , , - O o o $ e t t t t t t t ",
"2 2 2 2 2 3 3 $ o o @ * > 8 8 , * - < 0 0 0 0 < - , i d d a 0 8 8 0 a d d i , - < 0 0 0 0 < - * , 8 8 > * @ o o $ 3 3 2 2 2 2 $ ",
"2 2 2 $ + o o o o O * - , 8 8 , - - 1 q q q q < - , i d d a 0 8 8 0 a d d i , - < q q q q 1 - * , 8 8 , - * O o o o o + $ $ $ $ ",
"h h h t 3 $ $ # o @ > 8 8 8 8 , * - 0 u q q q 0 - , i d d a 0 8 8 0 a d d i , - 0 q q q q 0 - * , 8 8 8 8 > @ o # $ $ 3 t h h h ",
"j j j t 6 $ $ # o @ > 8 8 8 8 , * , u s s s s u 8 0 i d d a 0 8 8 0 a d d i 0 8 u s s s s u , * , 8 8 8 8 > @ o # $ $ 6 t j j j ",
"j l l f 6 $ $ $ @ * , 0 0 0 0 , - , i d d d d a 0 0 a d d a 0 8 8 0 a d d a 0 0 a d d d d i , - < 0 0 0 0 , * @ $ $ $ 6 f l l j ",
"v b b l 7 $ $ $ * - 1 q q q q < - , i d d d d i 0 0 i d d a 0 8 8 0 a d d i 0 0 i d d d d i , - < 0 0 0 0 < - * $ $ $ 7 l b b v ",
"A S S m e # $ $ * - 0 q q q q 0 - , i d d d d i 0 0 i d d a 0 8 8 0 a d d i 0 0 i d d d d i , * , 8 8 8 8 , * * $ $ # e m S S A ",
"S F K M e # $ $ * , u s s s s u - , u d d d d i 0 0 i d d a 0 8 8 0 a d d i 0 0 i d d d d u , - y i i i i y , * $ $ # e M K F S ",
"S S F m e # $ $ = , i d d d d i < < i d d d d i 0 0 i d d a 0 8 8 0 a d d i 0 0 i d d d d i < < i d d d d i , = $ $ # e m F S S ",
"S S F m e # $ $ = , i d d d d i 0 0 i d d d d i 0 0 i d d a 0 8 8 0 a d d i 0 0 i d d d d i 0 0 i d d d d i , = $ $ # e m F S S ",
"S S F m e # $ $ = , i d d d d i 0 0 i d d d d i 0 0 i d d a 0 8 8 0 a d d i 0 0 i d d d d i 0 0 i d d d d i , = $ $ # e m F S S ",
"S S F m e # $ $ = , i d d d d i 0 0 i d d d d i 0 0 i d d a 0 8 8 0 a d d i 0 0 i d d d d i 0 0 i d d d d i , = $ $ # e m F S S ",
"S S F m e # $ $ = , i d d d d i 0 0 i d d d d i 0 0 i d d a 0 8 8 0 a d d i 0 0 i d d d d i 0 0 i d d d d i , = $ $ # e m F S S ",
"S K F m e # $ $ = , i d d d d i 0 0 i d d d d i 0 0 i d d a 0 8 8 0 a d d i 0 0 i d d d d i 0 0 i d d d d i , = $ $ # e m F F S ",
"S F K m e # $ $ = , i d d d d i 0 0 i d d d d i 0 0 i d d a 0 8 8 0 a d d i 0 0 i d d d d i 0 0 i d d d d i , = $ $ # e m K F S ",
"m m m z 7 $ $ $ = , i d d d d i 0 0 a d d d d a 0 0 i d d a 0 8 8 0 a d d i 0 0 a d d d d a 0 0 i d d d d i , = $ $ $ 7 z m m m ",
"n m m z 7 $ $ $ = , i d d d d i 0 0 u s s s s u 0 0 i d d a 0 8 8 0 a d d i 0 0 u s s s s u 0 0 i d d d d i , = $ $ $ 7 z m m n ",
"A A A m e # $ $ * , i d d d d a 0 9 0 u u u u 0 9 0 a d d a 0 8 8 0 a d d a 0 9 0 u u u u 0 8 0 a d d d d i , = $ $ # e m A A A ",
"b b b l 7 $ $ $ * , i d d d d a 0 0 u s s s s u 0 0 a d d a 0 8 8 0 a d d a 0 0 u s s s s u 0 0 a d d d d i , = $ $ $ 7 l b b v ",
"B B B c w $ $ $ * ; 0 u u u u u 9 0 u p p p p u 0 9 u u u u 0 8 8 0 u u u u 9 0 u p p p p u 0 9 u u u u u 0 ; * $ $ $ w c B B B ",
"Z Z Z m w # $ $ * - 0 u u u u q 9 8 0 q q q q 0 8 9 q u u q 9 8 8 9 q u u q 9 8 0 q q q q 0 8 9 q u u u u 0 - * $ $ # w m Z Z Z ",
"x c v j 6 $ $ $ = , u d d d d i 0 8 0 q q q q 0 8 0 i d d i 0 8 8 0 i d d i 0 8 0 q q q q 0 8 0 i d d d d u , = $ $ $ 6 j v c x ",
"z x x h 6 $ $ $ * - 0 u u u u q 9 9 0 q q q q 0 9 9 q u u q 9 8 8 9 q u u q 9 9 0 q q q q 0 9 9 q u u u u 0 - * $ $ $ 6 h x x z ",
"x x x h 6 $ $ $ * - 1 q q q q 0 9 9 0 q q q q 0 9 9 0 q q 0 9 8 8 9 0 q q 0 9 9 0 q q q q 0 9 9 0 q q q q 1 - * $ $ $ 6 h x x x ",
"x x x h 6 $ $ $ * - 1 q q q q 0 9 9 0 q q q q 0 9 9 0 q q 0 9 8 8 9 0 q q 0 9 9 0 q q q q 0 9 9 0 q q q q 1 - * $ $ $ 6 h x x x ",
"x x x h 6 $ $ $ * - 1 q q q q 0 9 9 0 q q q q 0 9 9 0 q q 0 9 8 8 9 0 q q 0 9 9 0 q q q q 0 9 9 0 q q q q 1 - * $ $ $ 6 h x x x ",
"x x x h 6 $ $ $ * - 1 q q q q 0 9 9 0 q q q q 0 9 9 0 q q 0 9 8 8 9 0 q q 0 9 9 0 q q q q 0 9 9 0 q q q q 1 - * $ $ $ 6 h x x x ",
"x x x h 6 $ $ $ * - 1 q q q q 0 9 9 0 q q q q 0 9 9 0 q q 0 9 8 8 9 0 q q 0 9 9 0 q q q q 0 9 9 0 q q q q 1 - * $ $ $ 6 h x x x ",
"x x x h 6 $ $ $ * - 1 q q q q 0 9 9 0 q q q q 0 9 9 0 q q 0 9 8 8 9 0 q q 0 9 9 0 q q q q 0 9 9 0 q q q q 1 - * $ $ $ 6 h x x x ",
"x x x h 6 $ $ $ * - 1 q q q q 0 9 9 0 q q q q 0 9 9 0 q q 0 9 8 8 9 0 q q 0 9 9 0 q q q q 0 9 9 0 q q q q 1 - * $ $ $ 6 h x x x ",
"x x x h 6 $ $ $ * - 1 q q q q 0 9 9 0 q q q q 0 9 9 0 q q 0 9 8 8 9 0 q q 0 9 9 0 q q q q 0 9 9 0 q q q q 1 - * $ $ $ 6 h x x x ",
"x x x h 6 $ $ $ * - 1 q q q q 0 9 9 0 q q q q 0 9 9 0 q q 0 9 8 8 9 0 q q 0 9 9 0 q q q q 0 9 9 0 q q q q 1 - * $ $ $ 6 h x x x ",
"x x x h 6 $ $ $ * - 1 q q q q 0 9 9 0 q q q q 0 9 9 0 q q 0 9 8 8 9 0 q q 0 9 9 0 q q q q 0 9 9 0 q q q q 1 - = $ $ $ 6 h x x x ",
"x x x h 6 $ $ $ * - 1 q q q q 0 9 9 0 q q q q 0 9 9 0 q q 0 9 8 8 9 0 q q 0 9 9 0 q q q q 0 9 9 0 q q q q 1 - * $ $ $ 6 h x x x ",
"x x x h 6 $ $ $ * - 0 q q q q 0 , , 0 q q q q 0 , , 0 q q 0 9 8 8 9 0 q q 0 , , 0 q q q q 0 , , 0 q q q q 0 - * $ $ $ 6 h x x x ",
"x x x h 6 $ $ $ * - < 0 0 0 0 < - - 1 q q q q 1 - - 1 q q 0 9 8 8 9 0 q q 1 - - 1 q q q q 1 - - < q 0 0 0 < - * $ $ $ 6 h x x x ",
"x x x h 6 $ $ $ * * , 8 8 8 8 , * - < q q q q < - - 1 q q 0 9 , , 8 0 q q 1 - - < q q q q 9 - - , 8 8 8 8 , - = $ $ $ 6 h x x x ",
"x x x h 6 $ $ $ * * , 8 8 8 8 , * - , 9 9 9 9 , * - 1 q q 0 > * * > 0 q q 1 - - , 9 9 9 9 , - - , 8 8 8 8 , - * $ $ $ 6 h x x x ",
"x x x h 6 $ $ $ * * , 8 8 8 8 , - * , 8 8 8 8 > - - , 0 0 < - * * - < 0 0 < - - > 8 8 8 8 , * * , 8 8 8 8 , * * $ $ $ 6 h x x x ",
"x x x h 6 $ $ $ * * , 8 8 8 8 , - * , 8 8 8 8 5 $ $ > 8 8 , - * * - , 8 8 > $ $ 5 8 8 8 8 , * * , 8 8 8 8 , * * $ $ $ 6 h x x x ",
"z z x h 6 $ $ $ * - , 8 8 8 8 , - - , 8 8 8 8 > $ $ > 8 8 > = $ $ = > 8 8 5 $ $ > 8 8 8 8 , * * , 8 8 8 8 , * * $ $ $ 6 h x z z ",
"w w w 6 2 $ $ $ * - , 8 8 8 8 > = = > 8 8 8 8 5 $ $ 5 8 8 5 $ $ $ $ 5 8 8 5 $ $ 5 8 8 8 8 > = = > 8 8 8 8 , - * $ $ $ 2 6 w w w ",
"$ $ $ $ $ $ $ $ = = - > 5 5 5 : $ $ : > > > > : $ $ : > > : $ $ $ $ : > > : $ $ : > > > > : $ $ : > > > > - = = $ $ $ $ $ $ $ $ ",
"$ $ $ $ $ $ $ $ $ $ $ $ $ $ $ $ $ $ $ $ $ $ $ $ $ $ $ $ $ $ $ $ $ $ $ $ $ $ $ $ $ $ $ $ $ $ $ $ $ $ $ $ $ $ $ $ $ $ $ $ $ $ $ $ "
};
