/* XPM */
static char *oie_bYTI5xGKXPDy1705931390[] = {
/* columns rows colors chars-per-pixel */
"64 64 221 2 ",
"   c None",
".  c #010102",
"X  c #0A0104",
"o  c #040609",
"O  c #07090D",
"+  c #0C0C0C",
"@  c #0B040A",
"#  c #100405",
"$  c #19050A",
"%  c #0A0C15",
"&  c #090C17",
"*  c #160A15",
"=  c #0E131D",
"-  c #191815",
";  c #1C150E",
":  c #21000C",
">  c #2C0112",
",  c #220B1C",
"<  c #290919",
"1  c #36061E",
"2  c #3C031D",
"3  c #33081F",
"4  c #3C0718",
"5  c #221B14",
"6  c #340B12",
"7  c #37201C",
"8  c #0D1223",
"9  c #151525",
"0  c #1C1325",
"q  c #1D1E24",
"w  c #141628",
"e  c #191628",
"r  c #13192A",
"t  c #1B1C2D",
"y  c #171D22",
"u  c #150E22",
"i  c #250D23",
"p  c #2C0B21",
"a  c #320A21",
"s  c #390A20",
"d  c #221124",
"f  c #2C142A",
"g  c #281629",
"h  c #361428",
"j  c #1B212C",
"k  c #1A2026",
"l  c #1B2233",
"z  c #1D273B",
"x  c #24232C",
"c  c #2C2A25",
"v  c #312F29",
"b  c #232432",
"n  c #272837",
"m  c #33273D",
"M  c #363535",
"N  c #37352E",
"B  c #44011B",
"V  c #4A021C",
"C  c #470C1D",
"Z  c #54041E",
"A  c #5A041F",
"S  c #540B1E",
"D  c #49181E",
"F  c #4B0921",
"G  c #470921",
"H  c #5C0520",
"J  c #540C23",
"K  c #5B0E24",
"L  c #4A1222",
"P  c #4D142A",
"I  c #571327",
"U  c #5B1A32",
"Y  c #640721",
"T  c #660922",
"R  c #6C0923",
"E  c #740B24",
"W  c #7C0D25",
"Q  c #760E28",
"!  c #671529",
"~  c #761029",
"^  c #5E2328",
"/  c #4B3C29",
"(  c #57322B",
")  c #57243A",
"_  c #403D39",
"`  c #503237",
"'  c #64242C",
"]  c #6A2B33",
"[  c #62213A",
"{  c #78363A",
"}  c #723534",
"|  c #46433C",
" . c #59532F",
".. c #784A3D",
"X. c #6D533B",
"o. c #6B4F3A",
"O. c #2D2F44",
"+. c #2A3447",
"@. c #373A47",
"#. c #323D54",
"$. c #3B3F58",
"%. c #542D46",
"&. c #43344B",
"*. c #3C4956",
"=. c #3F4247",
"-. c #45454A",
";. c #454C5C",
":. c #4C4C51",
">. c #54524F",
",. c #785745",
"<. c #755046",
"1. c #7F6E47",
"2. c #435367",
"3. c #4F5F71",
"4. c #5F5569",
"5. c #516274",
"6. c #57606F",
"7. c #6E6A69",
"8. c #6C6864",
"9. c #736E69",
"0. c #7A7569",
"q. c #7C7976",
"w. c #8C1327",
"e. c #831125",
"r. c #931728",
"t. c #800E25",
"y. c #833137",
"u. c #926A3B",
"i. c #8A5248",
"p. c #945C4C",
"a. c #8F5652",
"s. c #8A544C",
"d. c #A3584E",
"f. c #9C6954",
"g. c #936B52",
"h. c #8E704B",
"j. c #A6765A",
"k. c #AD715A",
"l. c #87746C",
"z. c #A97D62",
"x. c #888048",
"c. c #B29447",
"v. c #B59A4A",
"b. c #B59A4A",
"n. c #B0845F",
"m. c #AC8E55",
"M. c #BCA24F",
"N. c #B8A353",
"B. c #ADA157",
"V. c #878176",
"C. c #948D7D",
"Z. c #99827D",
"A. c #888460",
"S. c #AF856A",
"D. c #BB9762",
"F. c #B69273",
"G. c #BFAC6E",
"H. c #A4A87B",
"J. c #C2AB55",
"K. c #C3AB56",
"L. c #CAB55B",
"P. c #CDBA5F",
"I. c #C6B058",
"U. c #C29672",
"Y. c #C8AA68",
"T. c #CBB566",
"R. c #D2BE62",
"E. c #D2B66D",
"W. c #CAA178",
"Q. c #DABD7B",
"!. c #D5C365",
"~. c #DBCC6A",
"^. c #DAC76B",
"/. c #DFD06D",
"(. c #DECC73",
"). c #D5CD74",
"_. c #E1D36E",
"`. c #E0CD75",
"'. c #E3D471",
"]. c #E5DA72",
"[. c #F0E474",
"{. c #5B6F86",
"}. c #657787",
"|. c #657B91",
" X c #7A8484",
".X c #958F85",
"XX c #9A9384",
"oX c #8C8B88",
"OX c #A49E92",
"+X c #9EA989",
"@X c #ABA394",
"#X c #B2A998",
"$X c #B3AA97",
"%X c #BCB4A4",
"&X c #ACA8A0",
"*X c #CAA682",
"=X c #D3AC86",
"-X c #D2AB89",
";X c #DAB389",
":X c #D8B78A",
">X c #D6B491",
",X c #E1BF8C",
"<X c #C1B7A4",
"1X c #C4BAA6",
"2X c #C7BDA9",
"3X c #E6C296",
"4X c #EBC698",
"5X c #E9C597",
"6X c #E3C688",
"7X c #CDC2AD",
"8X c #D2C7B1",
"9X c #D4C9B3",
"0X c #D9CEB6",
"qX c #DACFB8",
"wX c #DCD0B8",
"eX c #DBD0B7",
"rX c #D1C5AE",
"tX c #E1D5BC",
"yX c #E5D9BF",
"uX c #E7DAC0",
"iX c #E9DCC2",
/* pixels */
"                                                                                                                                ",
"                                                                                                                                ",
"                                                        ].].].].].].].].].].                                                    ",
"                                                        ~._._.].].].].].].].].                                                  ",
"                                                    ].!.L.P._.].].].].].].].].].                                                ",
"                                                  ~.~.R.J.I.!._.].].'././.`.].].                                                ",
"                                                b.J.I.P.P.L.L.R.'.'.E.Y.Y.E.^.'.[.                                              ",
"                                              c.c.b.b.K.!.R.J.J.T.T.D.n.j.n.Y./.6X                                              ",
"                                            c.c.c.c.c.M.I.P.L.B.x.1.h.g.o.o.m.).[.                                              ",
"                                            c.b.c.c.c.v.M.L.^.B. ./ h.g. ._ h.!.].                                              ",
"                                            b.b.c.c.c.N.K.R.`.Y.1.,.j.S.g.,.A.H.+X                                              ",
"                                                  c.v.K.!.`.6X:X$XW.=X:X=XF.XX}.}.}.}.                                          ",
"                                                  c.v.K.T.Q.,X3X4X4X3X3X4X>X.X4.;.2.2.                                          ",
"                                                c.c.c.m.D.W.;X3X5X5X3X3X4X-Xg.) i q +.5. X                                      ",
"                                              u.u.u.u.f.k.U.;X4X3X3X3X3X4X=Xa.G $ X k *.3.                                      ",
"                                              ^ ^ ^ ( y.k.U.;X,X3X6X3X3X4X=Xa.D : X + k +.5. X                                  ",
"                                              Z V V V ' i.z.W.;X;X;X:X;X*Xz.<.C $ X . o k *.3.                                  ",
"                                            V A Y Z V F U i.z.U.U.U.U.S.a.{ K B : X . . + k +.3. X                              ",
"                                          2 B A T Y Z V V ' i.f.f.f.f.s.] F B 1 : @ . . . o k 2.{.                              ",
"                                        0 3 B Z Z Y T T Y ! ' ] ] ] ] ! J G 3 i 0 = O . . . = *.2.      wXwXwXwXwXwXwX          ",
"                                      0 d a B B V H T E R Y Z C C V B s B a i u 8 = & O % 5 M ;.5.    tXwXwXwXqXqXwXwX          ",
"                                      p a 2 B B B V A H A Z B B B 2 3 i i i 0 8 & O & l -.8.V..X@X%XqXwXwXwXwXwXwXwXwX          ",
"                                      B 2 B B B B B B V V B 2 B 2 s i 9 9 w x b x x n ;.q.&XrX8X9XqXwXwXwXwXwXwXwXwX            ",
"                                      B B B B B B B B 2 p i p < p * u 8 8 j :.8.0.9.0.oX&X9XtXtXtXwXwXqXwXwXwX                  ",
"                                      B B B B B B B B 3 0 0 w t g b n b b @.l.%XrX2X7X7X8X0XwXtXwXwXwXwXwX                      ",
"                                      B B B B B B V B 3 0 8 8 n >.7.7.7.8.q.@X0XiXyXyXtXtXtXwXwXwXqXwXwX                        ",
"                                      B B B B B B B 2 3 0 9 t :..X%X2X%X%X1X8XeX0X8X9XwX0XwXwX                                  ",
"                                      a 3 2 B B B > > $ = x :.V.%XuXiXiXiXuXuX0X$XC.XX1XtXwX                                    ",
"                                      0 d a B B B > $ X O M C.1XqXwXwXwX0XqXwX1X0._ N                                           ",
"                                        0 a B Z Z D 7 ; ; | $XyXtX8X#XXX.XC.C.V.>.-                                             ",
"                                          2 V A ! y.../ ; | @XtXtX%X9.@.N N v c c                                               ",
"                                          > 4 K y.d.j.o.5 v 0.OX@XV.-.8 o . . .                                                 ",
"                                          X 5 ( p.k.j.X.5 + c _ -.@.n = o . .                                                   ",
"                                          . $ ( p.f.g.} 6 X X o % 0 d d % X                                                     ",
"                                        . . # D y.y.] ! S 6 X . . $ 4 I 4                                                       ",
"                                      . . . X C K J C J K C $ o O , P !                                                         ",
"                                              < a h i p h p - 9 t m @.%.                                                        ",
"                                              0 d e w e w w w l O.#.$.$.                                                        ",
"                                            e d i i w r r 9 r j z +.*.$.%.~ W                                                   ",
"                                          w e i 2 a 0 w w w r w r l +.&.) Q t.W e.                                              ",
"                                          r w p 2 2 3 0 w w r w w r z O.U W w.r.w.W                                             ",
"                                          w d p 2 B 2 3 0 w w 0 w w t f P ~ r.r.w.e.Q                                           ",
"                                          d i 2 B B B 2 p i i d 0 e d a F Y e.r.w.W W                                           ",
"                                      w 0 i 2 B B B B B B 2 2 a 0 u a s V Z Y W W Q Q                                           ",
"                                      d p 1 B B B V B B B V B s i i s B B B F P U [ [                                           ",
"                                      2 2 B B B B B B B B B B B     2 B B B a f m @.&.                                          ",
"                                      2 B B B B B B B B B B B       G B B B s h m #.                                            ",
"                                  r d 1 B V B B B B B B B B         B B B B J K U                                               ",
"                                  r 0 a B 2 s s B B B B B B         B B V H T Q                                                 ",
"                                  r 0 a 2 3 p a B B             B B B V H T E                                                   ",
"                                  d d a a g t a B               B B V Z T E                                                     ",
"                                2 1 a i g n O.O.                B V H T R                                                       ",
"                              B B B 2 a g O.#.                  V Z T E                                                         ",
"                            B B B B B F P )                     T T E                                                           ",
"                          B B V V B F Y !                       E E                                                             ",
"                        B B V H H Z                                                                                             ",
"                      B B B Z T E                                                                                               ",
"                      B V A T E                                                                                                 ",
"                      V Z Y E                                                                                                   ",
"                      H Y E                                                                                                     ",
"                      R E                                                                                                       ",
"                      W                                                                                                         ",
"                                                                                                                                ",
"                                                                                                                                "
};
