/* XPM */
static char *_3a3cc3942a14187c385acd478c63f37LcJHySp8oz4kJ0tp[] = {
/* columns rows colors chars-per-pixel */
"64 64 72 1 ",
"  c #361E15",
". c #3D241A",
"X c #3F281D",
"o c #42261A",
"O c #45291D",
"+ c #4B2C1E",
"@ c #512E1F",
"# c #4F301F",
"$ c #462D20",
"% c #4C2E21",
"& c #512F20",
"* c #4E3123",
"= c #543323",
"- c #5A3625",
"; c #573827",
": c #5D3826",
"> c #5C3926",
", c #5F3B26",
"< c #5F3C27",
"1 c #55372A",
"2 c #583628",
"3 c #573828",
"4 c #5D3828",
"5 c #5C3B29",
"6 c #5E3B28",
"7 c #5C3C28",
"8 c #5F3C29",
"9 c #5F3D2B",
"0 c #5C3A2C",
"q c #593833",
"w c #603725",
"e c #633823",
"r c #603B27",
"t c #613C27",
"y c #683E27",
"u c #603B28",
"i c #633C29",
"p c #633F29",
"a c #643E29",
"s c #673D2B",
"d c #633E2C",
"f c #653F2C",
"g c #673E2C",
"h c #693F29",
"j c #603F35",
"k c #63402A",
"l c #67402A",
"z c #64412D",
"x c #66442F",
"c c #69412B",
"v c #6A422B",
"b c #68422C",
"n c #6C422C",
"m c #6B442D",
"M c #6E462F",
"N c #71452D",
"B c #74472D",
"V c #75492E",
"C c #794B2F",
"Z c #664230",
"A c #654430",
"S c #6D4730",
"D c #6F4730",
"F c #6F4831",
"G c #724630",
"H c #744A32",
"J c #7A4C31",
"K c #804F32",
"L c #825236",
"P c #86573A",
"I c #87583C",
"U c #8F5B39",
/* pixels */
"+pppppppzp-,88,8,<e+3,,,6uuu,,6+=--66ppaf=O$8pzzzzzx=%--==;,,,7,",
"=ccccllaaapppppp,rB,Zuuuuuuuuu6%==---666d=*j8affddpd8=66,,8888kk",
"#aalaaaaappppppu,ap=,66666uu6u-O*===-2666%O06pu66666-*,-;,88,5zk",
"+,taaaaaaaappppu,lp+,6,,,66666,O%===--266=$266666666=*;,--;3;;6m",
"+,,pppppaaaaaapp,,a+-,----6666u+%====----=-666266666=%;---33,,;8",
"O-,,ttttpallapp6,,,+------,,6uu%*===----2&=-66226666=O-----1,,,p",
"o-,,,tttalbblap8,,,+-----,66uup%%==-----6&=-62266666=%------,,;p",
"+--,,rtpacbmblpp,,,+-,--,6uupaf%%==--2-22%=666666666==,------,;8",
"+--,,,,tlbMDMlppp,,+-66,6uuuaff%%==-----6&=66uuuuupu=*,,,---;;;8",
".=--,,,,plMDMlplp,-O-,,66uuuuaf%$%==-----++uuaffafp6=*,;,,----;6",
"O*======-,8zp=---=+%--,,,666,=-%+%%%=---=oO==,,uuu==%*--*+====-=",
"p,ppplfppzzzDp666A=6pfbmmbzzz%3-=---,uabb=-=panGHPB+-azDG-pplzzk",
"p6ppppp6pppp666--6*-68dzbzp66%1=*%===,uap%=-wahnNGLa=p6ampppplll",
"p66ppp66pppp6-66,-%-66pdffp66+===%%==-6up%==,raanNNr&aDFmlppllll",
"a6,6p66,,pp6--=--*O-668pdp66,O*=%%%===-66o%=,rpaaaa=&JHbzpppalap",
"p,,,,,,-,pp6-====%O-6688866,-O%%%%%%==---%==,rppaaa,rGmzpppppppp",
",,,,,,,,686,-=====$-668866,,,O%%%&&&===--+==,wppaanbpMbap,,,pppp",
",,,-----,6,-=====6%-66666,---+%%%%&&&==--O%=-,wraaaa-blp,,,,,ppp",
"------=--,,-======%--666,----O%%%%%%&==--o+&-,wrpaau6mar,,,,,,r,",
"-=======---=======O=-666,----OO%%%%%===-@.++=-,wrpa,,lpr,,---,,,",
"=%%%%&&&%%%%%%*==*.O-----==-=.O++%%%%&==+ .++%=-,rp-+-,,--------",
"%=%%%%&+++=+o%%===%.%=%+--=*%+%=-=O%=&++%+%==+&--,,=+=--====-==+",
"-ap,,---,ra==ppu66d-6ac=dzpppplMVB=,,---,ryacnpncnccaccMNMMNHPJr",
"-ur,-----,r+=6-,66,,,,p-6-,ppallMl+------rrpaarahccccaacMMMMNHLc",
"-ur,------r@+------,,uu%--,ppcbbMM+=----,rpupp=paaccaaacnNNNNNNb",
"=ur-----,,,++------,uu,+---,pcbMNc+===---,rpp-=rppaaaaccnnNNNNn=",
"=,r,----,rr++=----,,up,+=--,plbNNl+=====-,rrhc@wwrppyhccnncNNMr=",
"&,,,-----rp&%-----,,ua,+=--,uabNNl+======-,rpa@-,wrpahhcnnccNVLa",
"&,,,--==,rr@%-----,upa,+==--,plMNl+=&&====-,r,+=--wpaapacnccMNLJ",
"@,,,--=-,rr@%-----,upa,+==--,paMNc+=&&==&==-,-=---wrrappacccnMnc",
"@,ww,---,rp@%-----,6pa,+==---,aMNlO&&&======-=+--ewrrrrrrpaacnMr",
"O&===&&&===O+*=====--,=.+%%%%==,p=.OOO+++++++O.+@====&====---,,*",
"==--,,,-,-====-+=6,,palac+%6,---====-,upu+*6p+O688886$11-------=",
"rr,,rpppur,,,w6-DbnNVJJJUB,ayprr,,,rpaacb--8Ac-6888881q1-2-6u666",
",,----,,,,,,,,,-aacNNNVJKC-arww,---,rraab,=3188366666*1-==--6666",
"-======---,,,r,-paccNNNVJN=rwww-----,rraa,*-==316666=%-====-----",
"========---,,ru-aaccccNNJM=,,,,-===--,,rr-$===*=3631**-====-----",
"========---,ruu=pccNNNcnVJ=,rr,-=====--,,-O*****====*%-=====----",
"-=======--,,rup=,acNNNNNNB-rrrr--=======-=O%%*******%O*=*==-----",
"-======--,,rpaa-pcNNBBBNcc-rpppr--=====--=O%$%******$X*=*==-----",
"--===--,,,,uaaa=,aNBVVBNca=,yyyu,---===--*.$%%%%%%%%$.%***=-----",
"===&=--,,wwuaca&-rcNBBNcca%=-uuw,---=====O.XO$$$$$$$$.%$%*==----",
"%++OoO=--,,,,p-o+=-,,,rap=+=&--,,,a,+=***$OOOO$+OO%%%+%O.%**====",
"G,--O-paanbNHIJ+,fuuuuaGHa,auhaaacNa=6=*$%%%$%*****==-a=$Z8palzb",
"a,&=+-rpaabnMNH-6bfuuuaup-=rppp,,wp,=-=%$$$$$$%%%%%%==--*,,,ppaa",
"rp==+=rpaaaacbn-,faupaapa-+rppr---w-%-*%$$$$$$%%%%%%%===+-,,,upa",
"rau&O=rrrrruaaa=-paauuafb,+ppr,-----+=%%$$$$$%%%%%%%%%%*+---,,ru",
"r,r=O-rrrr,,rru=-paaaabbbu&ppw,-=&&-%*%%$$$$$%%%%%%%%%%++==---,,",
",-==O-rrr,,,,,,+=66ppfbbb6=pr,-=@&&-+%%%$$$$$%%%%%+++++OO====-,,",
"--==O-rrr,-,,-,+*,6uppfbbp&w,-=&&&@=O%%%%$%%%%%%%%+++++OO=====--",
"-===O-rrr,,,,-6**--66uabb6+--=&&@++&O%%%%%%%%%%%%%%+++OoO======-",
"-===O-rrr,,----O*=--6uuabu+=&&&@+++&O%%%%%%%*===**%+==Oo.*======",
"=&@@O=,,--=====OO$*=-,,uu-.++@@++++%o%%%%%%%*=====%*+OOO o======",
"-===@=---+=-===*%%%-=%----%====O+==%.O%%Oo%%=======++oO+O+&=====",
"cccrryacc,pbbzzzzzzD--MMMNNNNnn=8d8z6-6bN%6bnnnnMMnac====,r,,,,a",
"cccpprycc-,lzzzzzzbM-aMMNNMMMnn=6,,,----z=,lbbnnnbccc=*=-,,,,,yh",
"cccayyyac=-alaplzzbM,abMMMMMMnn=-,,----12%,lccbnnnaaM==-,,,,ryah",
"ccccyyyac=-pppaalzbM-pcnMMMMMnb=-,,,---16%,albbnnnaaa+%-,,,rryaa",
"hhchyyyac&=,ppppalbM-,acnMMMMnb=-,------,%-plccbbnbcc++-,rrryyca",
"hhhyyppac==,,,,6palb=-uannnncaa=---------+-pplccbnnbc=--,,rraacc",
"hhcyyyyyy=-,,,,,,paz---ucccaapr+=--------O-pppacbbbcl=---,ryaacc",
"cccyyppya+-,,,,,,ppl=-=,aaaaprr+======--6+-upupcccccl%=--,ryaccc",
"chyyyyyyN==,,,,,,pac+=-=rayppr,+=======68%-6u6ucccccl+==-,rtaccc",
"yprrrrrra++=-----,,,Oo*=----===.%%%%%%*=%o%-,--ppppp,o+===-,,raa"
};
