/* XPM */
static char *d13d2712e4e740e8f0769855adad17013N98QXrQn0YevsYs[] = {
/* columns rows colors chars-per-pixel */
"64 64 113 2 ",
"   c #0F0D09",
".  c #100F0C",
"X  c #12110E",
"o  c #141412",
"O  c #171817",
"+  c #171919",
"@  c #191B1D",
"#  c #1C1E21",
"$  c #1E2124",
"%  c #1F2428",
"&  c #202327",
"*  c #22262A",
"=  c #23292E",
"-  c #262B31",
";  c #292E34",
":  c #2B3037",
">  c #2C333B",
",  c #2E3640",
"<  c #2F3842",
"1  c #323B45",
"2  c #333D49",
"3  c #36404D",
"4  c #374250",
"5  c #394554",
"6  c #3C4857",
"7  c #3D4A5A",
"8  c #404E5F",
"9  c #414F61",
"0  c #445264",
"q  c #465569",
"w  c #485769",
"e  c #47586B",
"r  c #49596C",
"t  c #4B5D73",
"y  c #4E6076",
"u  c #516176",
"i  c #51647A",
"p  c #57697F",
"a  c #536780",
"s  c #566A85",
"d  c #586A81",
"f  c #576C88",
"g  c #596E89",
"h  c #5B718D",
"j  c #5D7491",
"k  c #5D7492",
"l  c #5E7592",
"z  c #5E7694",
"x  c #5F7795",
"c  c #5F7796",
"v  c #5D7492",
"b  c #617996",
"n  c #607897",
"m  c #607897",
"M  c #617998",
"N  c #617A99",
"B  c #637B98",
"V  c #627A9A",
"C  c #627B9B",
"Z  c #637B9B",
"A  c #637C9B",
"S  c #647D9C",
"D  c #647D9D",
"F  c #647D9E",
"G  c #657E9E",
"H  c #617A99",
"J  c #667FA0",
"K  c #67809F",
"L  c #6780A0",
"P  c #6680A1",
"I  c #6680A2",
"U  c #6782A3",
"Y  c #6881A1",
"T  c #6882A2",
"R  c #6882A3",
"E  c #6883A4",
"W  c #6983A4",
"Q  c #6E89AD",
"!  c #6E8AAE",
"~  c #6F8BAE",
"^  c #708CAF",
"/  c #718DB1",
"(  c #718EB2",
")  c #728EB2",
"_  c #728EB3",
"`  c #728FB3",
"'  c #728FB4",
"]  c #7391B5",
"[  c #7390B6",
"{  c #7391B6",
"}  c #7491B7",
"|  c #7492B8",
" . c #7593B8",
".. c #7694BA",
"X. c #7695BB",
"o. c #7795BB",
"O. c #7796BC",
"+. c #7896BD",
"@. c #7997BE",
"#. c #7998BF",
"$. c #7A99C0",
"%. c #7A99C1",
"&. c #7A9AC1",
"*. c #7B9AC2",
"=. c #7B9BC3",
"-. c #7C9BC4",
";. c #7C9CC4",
":. c #7D9EC7",
">. c #7E9EC7",
",. c #7E9FC8",
"<. c #7F9FC8",
"1. c #80A1CA",
"2. c #80A1CB",
/* pixels */
"o o o o o o o o o o o o o o o o o o o o o o o o o o o o o o o o o o o o o o o o o o o o o o o o o o o o o o o o o o o o o o o o ",
"o o o o o o o o o o o o o o o o o o X X   X * 5 e y i i i i i i u u i i i i i i y r 6 = X   X X o o o o o o o o o o o o o o o o ",
"o o o o o o o o o o o o o o o X . o & 1 2 3 r D } %.<.<.<.<.<.<.>.>.<.<.<.<.<.<.-. .J t 3 2 2 = o . X o o o o o o o o o o o o o ",
"o o o o o o o o o o o o o o @ $ @ & e Q %.o.X.X. .{ ' ` ` ` ` ` ` ` ` ` ` ` ` ' {  .X.X.X.%.` r = @ $ @ o o o o o o o o o o o o ",
"o o o o o o o o o o o o . @ 7 n T K Q +.>.%.} W h t 8 6 4 5 5 5 5 5 5 5 5 4 6 8 t g P { %.>.#.^ P T M 8 @ . o o o o o o o o o o ",
"o o o o o o o o o o . O 1 t P %.1.>.+.Q D g y 0 5 1 : ; ; ; ; ; ; ; ; ; ; ; ; : 1 5 0 y g A Q o.>.1.%.T y 1 @ . o o o o o o o o ",
"o o o o o o o o o o $ 1 f #.<.#.' W k i 0 3 , : ; : : : ; - - - - - - - - ; > : : ; : > 3 0 i k T ` #.<.%.h 1 $ O o o o o o o o ",
"@ @ @ @ @ @ @ @ @ - 0 k Q X.#.` g 7 2 > : : : ; ; ; ; ; = $ @ @ @ @ @ @ $ = ; ; ; ; ; : : : > 2 7 f ` #.X.Q c 0 - @ @ @ @ @ @ @ ",
"@ @ @ @ @ @ @ % 5 i h M P D g r 5 , > : : : - % # @ @ @ @ o o o o o o o o @ @ @ @ # % - : : : > > 5 r g D P M h i 6 * @ @ @ @ @ ",
"@ @ @ @ @ % , 9 s M D c f t 7 1 : : - * & & # @ o o o o o o o o o o o o o o o o o o @ @ & & * - : : 1 7 t s c D M s 0 < % @ @ @ ",
"@ @ @ @ # > t M M c k s e 3 , > ; - & @ o o o o o o o o o o o o o o o o o o o o o o o o o o @ & - ; : > 2 0 s j c M M t > # @ @ ",
"@ @ @ % > 7 a n M j t 6 1 : : ; & # @ o o o o o o o o o o o o o o o o o o o o o o o o o o o o @ # & ; : : 1 5 t h M M s 8 , % @ ",
"o o X & 8 f k M D h 0 , : ; & @ @ o o o o o o o o o o o o o o o o o o o o o o o o o o o o o o o o @ @ & ; : > 9 h D M k g 0 & X ",
"2 2 1 6 a M M k a e 3 : - & @ o o o o o o o o o o o o o o o o o o o o o o o o o o o o o o o o o o o o @ & - : 2 e i j M M s 7 1 ",
"M M M M n M M g 7 > ; - % @ o o o o o o o o o o o o o o o o o o o o o o o o o o o o o o o o o o o o o o @ % - ; : 7 f M M n M M ",
"n n n n n n M g 7 ; & # @ o o o o o o o o o o o o o o o o o o o o o o o o o o o o o o o o o o o o o o o o @ # & ; 7 f M n n n n ",
"r r r r r r r 0 3 ; $ o o o o o o o o o o o o o o o o o o o o o o o o o o o o o o o o o o o o o o o o o o o o # ; 2 0 r r r r r ",
"5 5 5 5 5 5 5 3 > * @ o o o o o o o o o o o o o o o o o o o o o o o o o o o o o o o o o o o o o o o o o o o o @ & > 3 5 5 5 5 5 ",
"4 4 4 4 4 4 5 2 - @ o o o o o o o o o o o o o o o o o o o o o o o o o o o o o o o o o o o o o o o o o o o o o o @ = 2 5 4 4 4 4 ",
"> > > > > > > : $ o o o o o o o o o o o o o o o o o o o o o o o o o o o o o o o o o o o o o o o o o o o o o o o o $ ; > > > > > ",
"# # # # # # $ @ O o o o o o o o o o o o o o o o o o o o o o o o o o o o o o o o o o o o o o o o o o o o o o o o o O @ $ $ # # @ ",
"@ @ @ @ @ o o o o o o o o o o o o o o o o o o o o o o o o o o o o o o o o o o o o o o o o o o o o o o o o o o o o o o o o O @ # ",
"1 1 1 > & @ @ @ o o o o o o o o o o o o o o o o o o o o o o o o o o o o o o o o o o o o o o o o o o o o o o o o o o @ @ @ & > 1 ",
"2 2 2 > & @ @ @ o o o o o o o o o o o o o o o o o o o o o o o o o o o o o o o o o o o o o o o o o o o o o o o o o o @ @ @ & > 2 ",
"2 3 3 1 * @ @ @ o o o o o o o o o o o o o o o o o o o o o o o o o o o o o o o o o o o o o o o o o o o o o o o o o o @ @ @ & < 3 ",
"7 8 8 4 - @ @ @ o o o o o o o o o o o o o o o o o o o o o o o o o o o o o o o o o o o o o o o o o o o o o o o o o o @ @ @ - 4 9 ",
"i p p w > @ @ @ o o o o o o o o o o o o o o o o o o o o o o o o o o o o o o o o o o o o o o o o o o o o o o o o o o @ @ @ > 0 p ",
"p d d r > @ @ @ o o o o o o o o o o o o o o o o o o o o o o o o o o o o o o o o o o o o o o o o o o o o o o o o o o @ @ @ > e d ",
"p p d r > @ @ @ o o o o o o o o o o o o o o o o o o o o o o o o o o o o o o o o o o o o o o o o o o o o o o o o o o @ @ @ > e d ",
"p p d r > @ @ @ o o o o o o o o o o o o o o o o o o o o o o o o o o o o o o o o o o o o o o o o o o o o o o o o o o @ @ @ > e d ",
"p p d r > @ @ @ o o o o o o o o o o o o o o o o o o o o o o o o o o o o o o o o o o o o o o o o o o o o o o o o o o @ @ @ > e d ",
"p p d r > @ @ @ o o o o o o o o o o o o o o o o o o o o o o o o o o o o o o o o o o o o o o o o o o o o o o o o o o @ @ @ > e d ",
"p p d r > @ @ @ o o o o o o o o o o o o o o o o o o o o o o o o o o o o o o o o o o o o o o o o o o o o o o o o o o @ @ @ > e d ",
"p p d r > @ @ @ o o o o o o o o o o o o o o o o o o o o o o o o o o o o o o o o o o o o o o o o o o o o o o o o o o @ @ @ > e d ",
"p p d r > @ @ @ o o o o o o o o o o o o o o o o o o o o o o o o o o o o o o o o o o o o o o o o o o o o o o o o o o @ @ @ > e d ",
"0 0 0 6 ; @ @ @ o o o o o o o o o o o o o o o o o o o o o o o o o o o o o o o o o o o o o o o o o o o o o o o o o o @ @ @ - 5 0 ",
"9 0 0 5 - @ @ @ o o o o o o o o o o o o o o o o o o o o o o o o o o o o o o o o o o o o o o o o o o o o o o o o o o @ @ @ - 5 0 ",
"i i p w > @ @ @ o o o o o o o o o o o o o o o o o o o o o o o o o o o o o o o o o o o o o o o o o o o o o o o o o o @ @ @ > 0 p ",
"7 8 8 4 - @ @ @ o o o o o o o o o o o o o o o o o o o o o o o o o o o o o o o o o o o o o o o o o o o o o o o o o o @ @ @ - 3 8 ",
"w e r 7 ; @ @ @ o o o o o o o o o o o o o o o o o o o o o o o o o o o o o o o o o o o o o o o o o o o o o o o o o o @ @ @ ; 7 r ",
"u u i 0 > @ @ @ o o o o o o o o o o o o o o o o o o o o o o o o o o o o o o o o o o o o o o o o o o o o o o o o o o @ @ @ : 0 i ",
"5 6 7 2 - @ @ @ o o o o o o o o o o o o o o o o o o o o o o o o o o o o o o o o o o o o o o o o o o o o o o o o o o @ @ @ = 2 7 ",
"5 5 5 2 = @ @ @ o o o o o o o o o o o o o o o o o o o o o o o o o o o o o o o o o o o o o o o o o o o o o o o o o o @ @ @ = 2 5 ",
"5 5 5 2 = @ @ @ o o o o o o o o o o o o o o o o o o o o o o o o o o o o o o o o o o o o o o o o o o o o o o o o o o @ @ @ = 2 5 ",
"5 5 5 2 - @ @ @ o o o o o o o o o o o o o o o o o o o o o o o o o o o o o o o o o o o o o o o o o o o o o o o o o o @ @ @ = 2 5 ",
"5 5 5 2 - @ @ @ o o o o o o o o o o o o o o o o o o o o o o o o o o o o o o o o o o o o o o o o o o o o o o o o o o @ @ @ = 2 5 ",
"5 5 5 2 = @ @ @ o o o o o o o o o o o o o o o o o o o o o o o o o o o o o o o o o o o o o o o o o o o o o o o o o o @ @ @ = 2 5 ",
"5 5 5 2 = @ @ @ o o o o o o o o o o o o o o o o o o o o o o o o o o o o o o o o o o o o o o o o o o o o o o o o o o @ @ @ = 2 5 ",
"5 5 5 2 = @ @ @ o o o o o o o o o o o o o o o o o o o o o o o o o o o o o o o o o o o o o o o o o o o o o o o o o o @ @ @ = 2 5 ",
"5 5 5 2 = @ @ @ o o o o o o o o o o o o o o o o o o o o o o o o o o o o o o o o o o o o o o o o o o o o o o o o o o @ @ @ = 2 5 ",
"5 5 5 2 = @ @ @ o o o o o o o o o o o o o o o o o o o o o o o o o o o o o o o o o o o o o o o o o o o o o o o o o o @ @ @ = 2 5 ",
"5 5 5 2 = @ @ @ o o o o o o o o o o o o o o o o o o o o o o o o o o o o o o o o o o o o o o o o o o o o o o o o o o @ @ @ = 2 5 ",
"5 5 5 2 = @ @ @ o o o o o o o o o o o o o o o o o o o o o o o o o o o o o o o o o o o o o o o o o o o o o o o o o o @ @ @ = 2 5 ",
"5 5 5 2 = @ @ @ o o o o o o o o o o o o o o o o o o o o o o o o o o o o o o o o o o o o o o o o o o o o o o o o o o @ @ @ = 2 5 ",
"5 5 5 2 = @ @ @ o o o o o o o o o o o o o o o o o o o o o o o o o o o o o o o o o o o o o o o o o o o o o o o o o o @ @ @ = 2 5 ",
"5 5 5 2 = @ @ @ o o o o o o o o o o o o o o o o o o o o o o o o o o o o o o o o o o o o o o o o o o o o o o o o o o @ @ @ = 2 5 ",
"5 5 5 2 = @ @ @ o o o o o o o o o o o o o o o o o o o o o o o o o o o o o o o o o o o o o o o o o o o o o o o o o o @ @ @ = 2 5 ",
"5 5 5 2 = @ @ @ o o o o o o o o o o o o o o o o o o o o o o o o o o o o o o o o o o o o o o o o o o o o o o o o o o @ @ @ = 2 5 ",
"5 5 5 2 = @ @ @ o o o o o o o o o o o o o o o o o o o o o o o o o o o o o o o o o o o o o o o o o o o o o o o o o o @ @ @ = 2 5 ",
"5 5 5 2 = @ @ @ o o o o o o o o o o o o o o o o o o o o o o o o o o o o o o o o o o o o o o o o o o o o o o o o o o @ @ @ = 2 5 ",
"5 5 5 2 = @ @ @ o o o o o o o o o o o o o o o o o o o o o o o o o o o o o o o o o o o o o o o o o o o o o o o o o o @ @ @ = 1 5 ",
"- - - * $ @ @ @ o o o o o o o o o o o o o o o o o o o o o o o o o o o o o o o o o o o o o o o o o o o o o o o o o o @ @ @ % * - ",
"@ @ @ @ @ @ @ @ o o o o o o o o o o o o o o o o o o o o o o o o o o o o o o o o o o o o o o o o o o o o o o o o o o @ @ @ @ @ @ ",
"@ @ @ @ @ @ @ @ o o o o o o o o o o o o o o o o o o o o o o o o o o o o o o o o o o o o o o o o o o o o o o o o o o @ @ @ @ @ @ "
};
