/* XPM */
static char *e503109b39cc47cfcd345b5f17c88299UJQwIaqt3P73Ejay[] = {
/* columns rows colors chars-per-pixel */
"64 64 118 2 ",
"   c #3D3D4C",
".  c #3C3C4B",
"X  c #404150",
"o  c #494B58",
"O  c #484B58",
"+  c #40414F",
"@  c #4C4F5C",
"#  c #484A57",
"$  c #3D3C4C",
"%  c #3D3C4B",
"&  c #40404F",
"*  c #474A57",
"=  c #4B4F5C",
"-  c #3E3E4D",
";  c #3F404F",
":  c #444553",
">  c #4A4C59",
",  c #494C59",
"<  c #434453",
"1  c #434553",
"2  c #4E515E",
"3  c #525562",
"4  c #4E505D",
"5  c #424351",
"6  c #414150",
"7  c #434452",
"8  c #454654",
"9  c #4F515E",
"0  c #545764",
"q  c #454755",
"w  c #4B4E5B",
"e  c #484A58",
"r  c #5E626D",
"t  c #5A5D68",
"y  c #464755",
"u  c #3F3F4E",
"i  c #4F525E",
"p  c #5D606B",
"a  c #656872",
"s  c #4D505D",
"d  c #656873",
"f  c #61636E",
"g  c #484957",
"h  c #5E616D",
"j  c #4C505C",
"k  c #525561",
"l  c #535663",
"z  c #545763",
"x  c #60636E",
"c  c #515461",
"v  c #535662",
"b  c #4B4E5C",
"n  c #5E616C",
"m  c #646771",
"M  c #646772",
"N  c #6D707A",
"B  c #6C6F79",
"V  c #5A5C68",
"C  c #424251",
"Z  c #494B59",
"A  c #5F626D",
"S  c #50525F",
"D  c #4F525F",
"F  c #464856",
"G  c #525461",
"H  c #62646F",
"J  c #4B4D5A",
"K  c #484856",
"L  c #3F404E",
"P  c #484956",
"I  c #5B5E69",
"U  c #494A58",
"Y  c #505360",
"T  c #4B4D5B",
"R  c #515460",
"E  c #4A4D5A",
"W  c #4B4C5A",
"Q  c #424352",
"!  c #5A5E69",
"~  c #676A74",
"^  c #414250",
"/  c #555864",
"(  c #5A5D69",
")  c #666973",
"_  c #646872",
"`  c #6B6E78",
"'  c #60626D",
"]  c #474856",
"[  c #656973",
"{  c #666974",
"}  c #6A6D77",
"|  c #626570",
" . c #4D4F5D",
".. c #61646F",
"X. c #636671",
"o. c #60626E",
"O. c #575965",
"+. c #5B5D69",
"@. c #5C5E6A",
"#. c #4C4D5A",
"$. c #464654",
"%. c #4B4C59",
"&. c #454553",
"*. c #464655",
"=. c #515360",
"-. c #424452",
";. c #5E606C",
":. c #3E3F4E",
">. c #4A4C5A",
",. c #3D3E4D",
"<. c #4C4E5B",
"1. c #666A74",
"2. c #3D3E4C",
"3. c #474957",
"4. c #696C76",
"5. c #3C3B4B",
"6. c #6E717A",
"7. c white",
/* pixels */
"    . X o O + + O o X . . X o O + + O o X . . . . + O @ @ @ @ # X $ . % % . . X o o X . . X o o X . . . . X o O + + O O + & * = ",
"  - ; : > , < < , > 1 + + 1 > , < < , > 1 + X X + 1 , @ @ 2 3 4 5   ; 6 6 X + 1 > > 1 + + 1 > > 1 + X X + 1 > , < < , , 7 8 9 0 ",
"  & q , w w , , w w , e e , w w , , w w , e e e e , w @ @ 3 r t y u q O O e e , w w , e e , w w , e e e e , w w , , w w o i p a ",
". X O s @ @ @ @ @ @ @ @ @ @ @ @ @ @ @ @ @ @ @ @ @ @ @ @ w 0 d f g & e s s @ @ @ @ @ @ @ @ @ @ @ @ @ @ @ @ @ @ @ @ @ @ @ @ 3 h a ",
". X O s @ @ @ @ @ @ @ @ @ @ @ @ @ @ @ @ @ @ @ @ @ @ @ @ w 0 d f g & e s j @ @ @ @ @ @ @ @ @ @ @ @ @ @ @ @ @ @ @ @ @ @ @ @ 2 k l ",
"X 1 , @ @ @ @ @ @ @ @ @ @ @ @ @ @ @ @ @ @ @ @ @ @ @ @ @ w z a x g & # @ @ @ @ @ @ @ @ @ @ @ @ @ @ @ @ @ @ @ @ @ @ @ @ @ @ 2 c v ",
"o > w @ @ @ @ @ @ @ @ @ @ @ @ @ @ @ @ @ @ @ @ @ @ @ @ @ w z a x g & # @ @ @ @ @ @ @ @ @ @ @ @ @ @ @ @ @ @ @ @ @ @ @ @ @ b k n m ",
"o > w @ @ @ @ @ @ @ @ @ @ @ @ @ @ @ @ @ @ @ @ @ @ @ @ @ w z a x g & # @ @ @ @ @ @ @ @ @ @ @ @ @ @ @ @ @ @ @ @ @ @ @ @ @ w z M N ",
"X 1 , @ @ @ @ @ @ @ @ @ @ @ @ @ @ @ @ @ @ @ @ @ @ @ @ @ w z a x g & # @ @ @ @ @ @ @ @ @ @ @ @ @ @ @ @ @ @ @ @ @ @ @ @ @ w z M B ",
". + e @ @ @ @ @ @ @ @ @ @ @ @ @ @ @ @ @ @ @ @ @ @ @ @ @ w 0 d f g & # @ @ @ @ @ @ @ @ @ @ @ @ @ @ @ @ @ @ @ @ @ @ @ @ @ w z M B ",
". + e @ @ @ @ @ @ @ @ @ @ @ @ @ @ @ @ @ @ @ @ @ @ @ @ @ w 0 d f g & # @ @ @ @ @ @ @ @ @ @ @ @ @ @ @ @ @ @ @ @ @ @ @ @ @ w z M N ",
"X 1 , @ @ @ @ @ @ @ @ @ @ @ @ @ @ @ @ @ @ @ @ @ @ @ @ @ b 3 h V y & e @ @ @ @ @ @ @ @ @ @ @ @ @ @ @ @ @ @ @ @ @ @ @ @ @ b k n M ",
"o > w @ @ @ @ @ @ @ @ @ @ @ @ @ @ @ @ @ @ @ @ @ @ @ @ @ @ 2 k s C & e @ @ @ @ @ @ @ @ @ @ @ @ @ @ @ @ @ @ @ @ @ @ @ @ @ @ 2 k z ",
"o > w @ @ @ @ @ @ @ @ @ @ @ @ @ @ @ @ @ @ @ @ @ @ @ @ @ @ 2 k 9 8 < Z @ @ @ @ @ @ @ @ @ @ @ @ @ @ @ @ @ @ @ @ @ @ @ @ @ @ @ w w ",
"X 1 , @ @ @ @ @ @ @ @ @ @ @ @ @ @ @ @ @ @ @ @ @ @ @ @ @ w 3 A n S Z w @ @ @ @ @ @ @ @ @ @ @ @ @ @ @ @ @ @ @ @ @ @ @ @ @ @ @ w w ",
". + e @ @ @ @ @ @ @ @ @ @ @ @ @ @ @ @ @ @ @ @ @ @ @ @ @ w 3 A n D Z w @ @ @ @ @ @ @ @ @ @ @ @ @ @ @ @ @ @ @ @ @ @ @ @ @ @ 2 k z ",
". X e @ @ @ @ @ @ @ @ @ @ @ @ @ @ @ @ @ @ @ @ @ @ @ @ @ @ 2 k 9 8 7 Z @ @ @ @ @ @ @ @ @ @ @ @ @ @ @ @ @ @ @ @ @ @ @ @ @ b k n M ",
". X e @ @ @ @ @ @ @ @ @ @ @ @ @ @ w Z Z w @ @ @ @ @ @ @ @ 2 k 2 8 7 Z @ @ @ @ @ @ @ @ @ @ @ @ @ @ @ @ @ @ @ @ @ @ @ @ @ w z M N ",
". + e @ @ @ @ @ @ @ @ @ @ @ @ @ @ Z 7 7 , s @ @ @ @ @ @ b k n p i Z w @ @ @ @ @ @ @ @ @ @ @ @ @ @ @ @ @ @ @ @ @ @ @ @ @ w z M B ",
"+ 1 , @ @ @ @ @ @ @ @ @ @ @ @ @ @ Z 7 5 F , w @ @ @ @ @ w z a M G Z w @ @ @ @ @ @ @ @ @ @ @ @ @ @ @ @ @ @ @ @ @ @ @ @ @ w z m B ",
"O , w @ @ @ @ @ @ @ @ @ @ @ @ @ @ w , F 5 7 , s @ @ @ @ w z d H J 7 Z @ @ @ @ @ @ @ @ @ @ @ @ @ @ @ @ @ @ @ @ @ @ @ @ @ w z m B ",
"@ @ @ @ @ @ @ @ @ @ @ @ @ @ @ @ @ @ s , 7 5 F > w @ @ @ w 0 d f K L # @ @ @ @ @ @ @ @ @ @ @ @ @ @ @ @ @ @ @ @ @ @ @ @ @ w z m B ",
"@ @ @ @ @ @ @ @ @ @ @ @ @ @ @ @ @ @ @ w , F 5 1 , s @ @ w 0 d f P L # @ @ @ @ @ @ @ @ @ @ @ @ @ @ @ @ @ @ @ @ @ @ @ @ @ w z m B ",
"@ @ @ @ @ @ @ @ @ @ @ @ @ @ @ @ @ @ @ @ s O + u q , w @ @ 3 h I U 7 Z @ @ @ @ @ @ @ @ @ @ @ @ @ @ @ @ @ @ @ @ @ @ @ @ @ w z m B ",
"@ @ @ @ @ @ @ @ @ @ @ @ @ @ @ @ @ @ @ @ s O +   u < , @ @ 2 c Y T Z w @ @ @ @ @ @ @ @ @ @ @ @ @ @ @ @ @ @ @ @ @ @ @ @ @ w z m B ",
"O , w @ @ @ @ @ @ @ @ @ @ @ @ @ @ @ @ @ @ , 1 + & 7 , @ @ 2 c c 2 @ @ @ @ @ @ @ @ @ @ @ @ @ @ @ @ @ @ @ @ @ @ @ @ @ @ @ w z m B ",
"+ 1 , @ @ @ @ @ @ @ @ @ @ @ @ @ @ @ @ @ @ w , e e Z w @ @ k n n 3 @ @ @ @ @ @ @ @ @ @ @ @ @ @ @ @ @ @ @ @ @ @ @ @ @ @ @ w z m B ",
". X O s @ @ @ @ @ @ @ @ @ @ @ @ @ @ @ @ @ @ @ @ @ @ @ w w z a m R O E @ @ @ @ @ @ @ @ @ @ @ @ @ @ @ @ @ @ @ @ @ @ @ @ w w l m B ",
". X O s @ @ w w w b @ @ b w w w w b @ @ b w b @ @ b w w w z a H W Q e @ b w w b @ @ w w @ @ b w w b @ @ b w w w w w w w w l m B ",
"  & q , w 2 3 z 0 3 2 2 k z z 0 0 3 2 2 k z z z z z z z z ! ~ x K ^ 4 / 0 z 0 3 2 2 3 3 2 2 k 0 0 3 2 2 3 0 z z z z z z l ( ) B ",
"  - ; < , 3 A d d h k k n a d d d h c c n d d a M M a a _ ~ ` ' ] 8 t [ d a d h k k A A k c n d d h k k h d a M a a M M M { } B ",
"    . u 8 D n M | V  .2 p M H f f I Y c n m H ..X.X...o.o.H m V 8 : O.| M m H V s 4 +.@.R c n M | V s s V H m X.....X.M M M m X.",
"    .   u q S G #.$.C 8 D G J K P U T 2 3 R %.W R R W K K J R 4 5 u &.J G c J *.C 5 y U T 2 3 R J *.C C *.J c R W %.=.z z z z l ",
"  - & X + < Z Z 7 ; & < Z Z 7 L L 7 Z @ @ O Q Q o Z 7 L L 7 Z , : + ; 7 Z Z 7 ; + + ; 7 Z @ @ O -.; + + ; 7 Z o Q Q O @ b w w w ",
"  & y o O Z w w Z # e Z w w Z # # Z w @ @ T o o T w Z # # Z w w , O e Z w w Z # e e # Z w @ @ T o # e e # Z w T o o T @ @ @ @ @ ",
"% 6 O s s @ @ @ @ @ @ @ @ @ @ @ @ @ @ @ @ @ @ @ @ @ @ @ @ @ @ w , > w @ @ @ @ @ @ @ @ @ @ @ @ @ @ @ @ @ @ @ @ @ @ @ @ @ @ @ @ @ ",
"% 6 O s j @ @ @ @ @ @ @ @ @ @ @ @ @ @ @ @ @ @ @ @ @ @ @ @ @ @ , 1 1 , j @ @ @ @ @ @ @ @ @ @ @ @ @ @ @ @ @ @ @ @ @ @ @ @ @ @ w w ",
". X e @ @ @ @ @ @ @ @ @ @ @ @ @ @ @ @ @ @ @ @ @ @ @ @ @ @ @ @ # & & e @ @ @ @ @ @ @ @ @ @ @ @ @ @ @ @ @ @ @ @ @ @ @ @ @ @ 2 k z ",
". + e @ @ @ @ @ @ @ @ @ @ @ @ @ @ @ @ @ @ @ @ @ @ @ @ @ @ @ @ * & & e @ @ @ @ @ @ @ @ @ @ @ @ @ @ @ @ @ @ @ @ @ @ @ @ @ b k n M ",
"X 1 , @ @ @ @ @ @ @ @ @ @ @ @ @ @ @ @ @ @ @ @ @ @ @ @ @ @ 2 3 9 8 < Z @ @ @ @ w Z Z w @ @ @ @ @ @ @ @ @ @ @ @ @ @ @ @ @ w z a N ",
"o > w @ @ @ @ @ @ @ @ @ @ @ @ @ @ @ @ @ @ @ @ @ @ @ @ @ b k h ;.D Z w @ @ @ s , 7 7 Z @ @ @ @ @ @ @ @ @ @ @ @ @ @ @ @ @ w z a N ",
"O , w @ @ @ @ @ @ @ @ @ @ @ @ @ @ @ @ @ @ @ @ @ @ @ @ @ w z d M G Z w @ @ w , F 5 7 Z @ @ @ @ @ @ @ @ @ @ @ @ @ @ @ @ @ b k n m ",
"+ < , @ @ @ @ @ @ @ @ @ @ @ @ @ @ @ @ @ @ @ @ @ @ @ @ @ w 0 d | #.7 Z s s , 1 5 F , w @ @ @ @ @ @ @ @ @ @ @ @ @ @ @ @ @ @ 2 c v ",
"+ < , @ @ @ @ @ @ @ @ @ @ @ @ @ @ @ @ @ @ @ @ @ @ @ @ @ b 3 h V $.:.q Z Z q u + O s @ @ @ @ @ @ @ @ @ @ @ @ @ @ @ @ @ @ @ 2 c v ",
"O , w @ @ @ @ @ @ @ @ @ @ @ @ @ @ @ @ @ @ @ @ @ @ @ @ @ @ 2 k s C   L ^ ^ ;   + O s @ @ @ @ @ @ @ @ @ @ @ @ @ @ @ @ @ @ b k n m ",
"o > w @ @ @ @ @ @ @ @ @ @ @ @ @ @ @ @ @ @ @ @ @ @ @ @ @ @ 2 k 9 q ;   . .   L 1 , @ @ @ @ @ @ @ @ @ @ @ @ @ @ @ @ @ @ @ w z M N ",
"X 1 , @ @ @ @ @ @ @ @ @ @ @ @ @ @ @ @ @ @ @ @ @ @ @ @ @ w 3 A n S q L . . L q > w @ @ @ @ @ @ @ @ @ @ @ @ @ @ @ @ @ @ @ w z M B ",
". + e @ @ @ @ @ @ @ @ @ @ @ @ @ @ @ @ @ @ @ @ @ @ @ @ @ w 3 A n S q L   L : > s @ @ @ @ @ @ @ @ @ @ @ @ @ @ @ @ @ @ @ @ w z m B ",
". X e @ @ @ @ @ @ @ @ @ @ @ @ @ @ @ @ @ @ @ @ @ @ @ @ @ @ 2 k 9 8 u   L q > w @ @ @ @ @ @ @ @ @ @ @ @ @ @ @ @ @ @ @ @ @ w z m B ",
"$ 6 e @ @ @ @ @ @ @ @ @ @ @ @ @ @ @ @ @ @ @ @ @ @ @ @ @ @ 2 k 9 8 + + 1 > s @ @ @ @ @ @ @ @ @ @ @ @ @ @ @ @ @ @ @ @ @ @ w z m B ",
"$ 6 e @ @ @ @ @ @ @ @ @ @ @ @ @ @ @ @ @ @ @ @ @ @ @ @ @ b k n p D e e , w @ @ @ @ @ @ @ @ @ @ @ @ @ @ @ @ @ @ @ @ @ @ @ w z m B ",
". X e @ @ @ @ @ @ @ @ @ @ @ @ @ @ @ @ @ @ @ @ @ @ @ @ @ w z a M G Z w @ @ @ @ @ @ @ @ @ @ @ @ @ @ @ @ @ @ @ @ @ @ @ @ @ w z m B ",
". + e @ @ @ @ @ @ @ @ @ @ @ @ @ @ @ @ @ @ @ @ @ @ @ @ @ w z d H J 7 Z j @ @ @ @ @ @ @ @ @ @ @ @ @ @ @ @ @ @ @ @ @ @ @ @ w z m B ",
"X 1 , @ @ @ @ @ @ @ @ @ @ @ @ @ @ @ @ @ @ @ @ @ @ @ @ @ w z a x P ; # @ @ @ @ @ @ @ @ @ @ @ @ @ @ @ @ @ @ @ @ @ @ @ @ @ w z M B ",
"o , w @ @ @ @ @ @ @ @ @ @ @ @ @ @ @ @ @ @ @ @ @ @ @ @ @ w z a x P ; # @ @ @ @ @ @ @ @ @ @ @ @ @ @ @ @ @ @ @ @ @ @ @ @ @ w z M N ",
"o > w w , Z w @ @ @ @ @ @ @ @ @ @ @ @ @ @ @ @ @ @ @ @ @ w z a x g & # @ @ @ @ @ @ @ @ @ @ @ @ @ @ @ @ @ @ @ @ @ @ @ @ @ b k n m ",
"X : >.> 7 7 Z @ @ @ @ @ @ @ @ @ @ @ @ @ @ @ @ @ @ @ @ @ w z a x g & # @ @ @ @ @ @ @ @ @ @ @ @ @ @ @ @ @ @ @ @ @ @ @ @ @ @ 2 c v ",
". ; q F 5 7 Z @ @ @ @ @ @ @ @ @ @ @ @ @ @ @ @ @ @ @ @ @ w z a x g & # @ @ @ @ @ @ @ @ @ @ @ @ @ @ @ @ @ @ @ @ @ @ @ @ @ @ 2 c v ",
"  ,.L Q F , w @ @ @ @ @ @ @ @ @ @ @ @ @ @ @ @ @ @ @ @ @ w z a x g & # @ @ @ @ @ @ @ @ @ @ @ @ @ @ @ @ @ @ @ @ @ @ @ @ @ b k n m ",
"  - ; 1 , @ @ @ @ @ @ @ @ @ @ @ @ @ @ @ @ @ @ @ @ @ @ w w z _ x g & # @ @ @ @ @ @ @ @ @ @ @ @ @ @ @ @ @ @ @ @ @ @ @ @ w w z M N ",
"  & y > w @ w b @ @ w w @ @ b w w w w w w b @ @ b w w w w z M x g & e @ @ w w b @ @ b w w b @ @ b w w w w w w b @ @ b w w l M B ",
"  & q <.c z z k 2 2 k k 2 2 k z z z z z z k 2 2 k z z l l ( 1.o.g ; # 2 3 z z k 2 2 k z z k 2 2 k z z z z z z k 2 2 k z l t ) B ",
"  2.L o I a a n c k n n k c n M M m m M M n c c n M M m m { } ' P ; 3.3 n a a n c c n a a n c c n M M m m M M n c c n M M ) 4.` ",
"  . 5.P f 6.N m v l a a l v m N B B B B N m v v m N B B B B B ' K L 3.z _ N N m v v m N N m v v m N B B B B N m v v m N B B ` ` "
};
