/* XPM */
static char *oie_JHjoJED8Duzh1705927580[] = {
/* columns rows colors chars-per-pixel */
"64 64 222 2 ",
"   c None",
".  c #020202",
"X  c #0C0206",
"o  c #0C0C0C",
"O  c #07070A",
"+  c #14020A",
"@  c #15070B",
"#  c #1B160A",
"$  c #0A0B11",
"%  c #090B14",
"&  c #1D0E1E",
"*  c #0F1218",
"=  c #0D1116",
"-  c #11151B",
";  c #13191E",
":  c #1A141C",
">  c #23000E",
",  c #2B061D",
"<  c #270717",
"1  c #350015",
"2  c #3A0117",
"3  c #34051D",
"4  c #3B041D",
"5  c #33081F",
"6  c #241B19",
"7  c #2A241C",
"8  c #3C3419",
"9  c #1B0E23",
"0  c #0E1223",
"q  c #0F1728",
"w  c #131626",
"e  c #1D1325",
"r  c #161C22",
"t  c #191F24",
"y  c #121728",
"u  c #141829",
"i  c #191728",
"p  c #240E23",
"a  c #2C0C22",
"s  c #330920",
"d  c #3D0B22",
"f  c #340720",
"g  c #221225",
"h  c #2B1629",
"j  c #3A1226",
"k  c #351529",
"l  c #231E32",
"z  c #291F34",
"x  c #1B222B",
"c  c #1A2026",
"v  c #1F2539",
"b  c #1B2033",
"n  c #39352F",
"m  c #34322C",
"M  c #252839",
"N  c #3A3630",
"B  c #373637",
"V  c #44011B",
"C  c #4B031D",
"Z  c #420017",
"A  c #53031E",
"S  c #5A041E",
"D  c #52081F",
"F  c #63051F",
"G  c #4A0A21",
"H  c #460A22",
"J  c #5B0620",
"K  c #590C24",
"L  c #411125",
"P  c #541326",
"I  c #5A1A29",
"U  c #57152B",
"Y  c #551A32",
"T  c #451D34",
"R  c #630721",
"E  c #640A23",
"W  c #6C0A23",
"Q  c #740C25",
"!  c #7B0D25",
"~  c #6B132C",
"^  c #631829",
"/  c #73172A",
"(  c #641D37",
")  c #48272A",
"_  c #453729",
"`  c #46273A",
"'  c #59223B",
"]  c #592B32",
"[  c #632435",
"{  c #6D3339",
"}  c #773C3D",
"|  c #6F242F",
" . c #4F411C",
".. c #53442A",
"X. c #584733",
"o. c #55502B",
"O. c #704D32",
"+. c #776A39",
"@. c #262E42",
"#. c #292F45",
"$. c #293244",
"%. c #2B3647",
"&. c #313C4D",
"*. c #3A3148",
"=. c #2E3A51",
"-. c #313C54",
";. c #323F59",
":. c #342E43",
">. c #443951",
",. c #483952",
"<. c #553B54",
"1. c #4B2D45",
"2. c #683C48",
"3. c #723B48",
"4. c #38414E",
"5. c #36435D",
"6. c #3E4C5D",
"7. c #384259",
"8. c #344760",
"9. c #47474D",
"0. c #49484F",
"q. c #464548",
"w. c #524B4C",
"e. c #4A4956",
"r. c #5E594E",
"t. c #7D4341",
"y. c #6A5743",
"u. c #75534D",
"i. c #706345",
"p. c #43526A",
"a. c #495969",
"s. c #465666",
"d. c #565665",
"f. c #504D65",
"g. c #53667A",
"h. c #5A6278",
"j. c #77736A",
"k. c #73777B",
"l. c #696A79",
"z. c #820E26",
"x. c #851126",
"c. c #8A1327",
"v. c #961828",
"b. c #9A1A28",
"n. c #84413F",
"m. c #85663A",
"M. c #8E793B",
"N. c #96584B",
"B. c #815144",
"V. c #9A6652",
"C. c #956651",
"Z. c #887357",
"A. c #967052",
"S. c #A6745C",
"D. c #A77A59",
"F. c #A26E5A",
"G. c #947E6B",
"H. c #A07B64",
"J. c #9C8C4D",
"K. c #B29547",
"L. c #B69A4A",
"P. c #B69949",
"I. c #A88F4A",
"U. c #BEA551",
"Y. c #B9A756",
"T. c #BAA04E",
"R. c #9A8365",
"E. c #878174",
"W. c #9A827A",
"Q. c #B98B69",
"!. c #B48762",
"~. c #B68A71",
"^. c #B49372",
"/. c #BAA272",
"(. c #C2AB55",
"). c #CAB55B",
"_. c #C7B259",
"`. c #D0BC5F",
"'. c #C49978",
"]. c #C19E66",
"[. c #C5A765",
"{. c #D1BD61",
"}. c #D4BC6C",
"|. c #C8A27A",
" X c #DACA68",
".X c #D7C46A",
"XX c #DDC677",
"oX c #E3D671",
"OX c #E5DA72",
"+X c #E8DC74",
"@X c #E1D46F",
"#X c #576A81",
"$X c #5F7388",
"%X c #63788E",
"&X c #627288",
"*X c #767D89",
"=X c #8F8B86",
"-X c #A49B89",
";X c #A29987",
":X c #A89F92",
">X c #B49B90",
",X c #A9A194",
"<X c #A9A395",
"1X c #B4AB99",
"2X c #B5A893",
"3X c #BCB4A5",
"4X c #D2AE86",
"5X c #DBB58A",
"6X c #D7B589",
"7X c #D2B188",
"8X c #E1BD92",
"9X c #C0B6A0",
"0X c #E3C58A",
"qX c #E6C296",
"wX c #EEC99A",
"eX c #EAC598",
"rX c #D5C9B3",
"tX c #DBCFB7",
"yX c #DCD0B8",
"uX c #DCD0B7",
"iX c #CDC3AE",
"pX c #E1D4BC",
/* pixels */
"                                                                                                                                ",
"                                                                                                                                ",
"                                                                                                                                ",
"                                                                                                                                ",
"                                                                                                                                ",
"                                                    @XoXOXOXOXOXOXOXOXOX                                                        ",
"                                                  _.`. X@XOXOXOXOXOX+XOXOX                                                      ",
"                                        K.K.K.K.K.L.U.). XOXOXOXoXOXoXoXOXOX                                                    ",
"                                        K.K.K.K.K.T.U.Y.{. XoXoX.X}.}.XXoX+X                                                    ",
"                                            K.K.P.(.{..X(.)..X.X].!.!.[. XOX                                                    ",
"                                            K.K.K.U._.`._.T.J.J.I.A.u.A.Y.Y.+.                                                  ",
"                                                K.P.Y.)..XI.o._ C.B._  .M.M.8 c s.%X                                            ",
"                                              L.P.T.U..XXXY.i.u.R.H.y.X.O. .# ; %.s.g.                                          ",
"                                            K.K.K.U..X X0X5X4X/.4X4X/.Z. .# . . = M a.%X                                        ",
"                                            +.m.m.D._.}.qX8XwX8XeXwXeX^.0.r O . . c a.%X                                        ",
"                                            N ) I O.D.|.5XwX8X8XqXqXqX2Xk.4.- . . c a.%X                                        ",
"                                          a p , 4 I O.S.'.5X8X8X4X4X~.G.*Xg.&.r o t a.%X                                        ",
"                                        V V 4 4 4 C I 3.S.|.5X5X'.F.3.u.h.$Xg.4.; t a.%X                                        ",
"                                      V V V V V Z Z V | V.'.'.'.Q.N.~ Y <.h.&Xa.x t s.%X                                        ",
"                                    V V V V V V C 4 V [ N.Q.].Q.D.N.| R U <.h.s.c t a.%X                                        ",
"                                    V V V C A C C Z V I B.V.S.S.V.n./ R J Y f.6.r t a.%X                                        ",
"                                    V V V A R F C V V C U } V.N.{ K J S E ( <.=.; t a.%X                                        ",
"                                  V V C A R Q W A V V C A ^ B.} P V C S R ( e.-.; t a.%X                                        ",
"                                V V V A R Q Q R C Z V A E W ^ P C A R F J ' f.6.r t a.%X                                        ",
"                                V C A R Q Q E G 2 2 V J R R J A A J R S V 1.p.6.c r 6.#X                                        ",
"                                V A R Q Q E k 6 + + 2 V C S R W W R A H a M ;.%.; * &.6.                                        ",
"                                Z C S W K L : $ . + < f V A R W W J H a l $.-.$.* ; 7.p.                                        ",
"                    . . .       C C A H k & $ . . O & a 4 C C A A V a l #.-.7.M * r 6.#X                                        ",
"                    . . . .   ) { } { ] i % . . O % * e a 2 3 3 3 a M v @.$.#.b $ c 6.#X                                        ",
"                      . . . O X.H.^.~.i.g . . O % 0 w i e e g g e l #.M t * * $ O * 4.6.                                        ",
"                        . . o y.4XwX8XH.7 . . t *.0.0.0.9.9.9.9.9.&.%.x O . . . . = $.7.                                        ",
"                              R.6XeX8XG.7 . . N E.<X<X,X:X,X,X<X:XG.B o . O . . O = $.5.                                        ",
"                                qXwX8XZ.# o m j.9XpXpXpXpXyXpXpXtX,Xr.N n N N N N q.d.l.                                        ",
"                                      _ o m G.3XtXpXpXyXpXpXpXpXpX9X<X-X;X;X-X-X-X-X1X3XiXyX                                    ",
"                                      . O N W.>X>X>X>X:X:X:X:X3XrXyXyXyXyXyXtXtXyXtXtXtXyXyX                                    ",
"                                    . . . 6 ] 3.2.2.w.0.0.9.e.j.3XpXpXpXyXpXyXyXpXyXpXyXyXyXyXyXyXyXyXyXyXyXyXyXyXyXyXyX        ",
"                                  + . . + > 2 C V 5 g u w y i 9.=X3XrXyXyXyXyXyXyXyXyXyXyXyXyXyXyXyXyXtXyXyXyXtXyXtXyXyX        ",
"                            V C V > X + > 1 2 Z 4 5 9 w 0 w q @.d.*X                    yXyXyXyXtXyXyXyXyXyXyXyXyXyXyX          ",
"                            V V Z > + > 2 V V V V f e w w u b @.-.7.                    yXyXyXyXyXyXyXyXyXyXyXyXyXyX            ",
"                                  1 1 1 V C V V V f e y w b #.=.=.5.                                                            ",
"                                    V V V V V V V 5 e w w M =.5.5.5.                                                            ",
"                                    C V V V V V V 5 e w y v -.5.5.5.                                                            ",
"                                    V V V V V V 4 a i y y M *.>.>.>.                                                            ",
"                            V V C V V V V V V 4 a e w y w h Y ( ( [                                                             ",
"                            V V V 4 4 4 V V V 4 a h g e g j E ! x.x.                                                            ",
"                              V V 4 a a 4 V V C P G 4 f f G W x.v.b.                                                            ",
"                              C V 5 e e 5 4 C E Q W H f f J W x.v.b.                                                            ",
"                        V V V V 4 5 e w g d J x.v./ L p p d E z.c.c.                                                            ",
"                      V V V V C C H k l i k ~ c.v.~ k u w h U / ! !                                                             ",
"                    V V V V V A J R K T :.1.~ x.x.^ h q q M 1.1.                                                                ",
"                    V V V V V S Q ! ! ' >.1.~ z.! P h q u v -.5.                                                                ",
"                    V V                           j r u u v =.8.                                                                ",
"                    V V                             e e e l *.>.                                                                ",
"                                                    5 5 f L Y (                                                                 ",
"                                                    V V G J W !                                                                 ",
"                                                    V A R W                                                                     ",
"                                                    V A W !                                                                     ",
"                                                    V S W !                                                                     ",
"                                                    V A W !                                                                     ",
"                                                    V S W !                                                                     ",
"                                                    C A E Q                                                                     ",
"                                                    V C A R W                                                                   ",
"                                                    V V C A W !                                                                 ",
"                                                                                                                                "
};
