/* XPM */
static char *oie_wELkoaD9fNm71705931144[] = {
/* columns rows colors chars-per-pixel */
"64 64 214 2 ",
"   c None",
".  c #010101",
"X  c #0B0205",
"o  c #0B0B0B",
"O  c #08090A",
"+  c #160609",
"@  c #0A0C13",
"#  c #070A12",
"$  c #1B0915",
"%  c #0E1015",
"&  c #0E121B",
"*  c #151519",
"=  c #23000E",
"-  c #2C061E",
";  c #2A0311",
":  c #35061E",
">  c #3B041C",
",  c #34081F",
"<  c #390316",
"1  c #341D1B",
"2  c #2A2616",
"3  c #31281A",
"4  c #0F1526",
"5  c #141526",
"6  c #1C1326",
"7  c #161B23",
"8  c #141728",
"9  c #14192A",
"0  c #1A1C2B",
"q  c #1F1629",
"w  c #1A1F31",
"e  c #1B0D21",
"r  c #240E23",
"t  c #2B0C22",
"y  c #330A21",
"u  c #3C0923",
"i  c #231124",
"p  c #2D1225",
"a  c #271629",
"s  c #351428",
"d  c #391933",
"f  c #281C31",
"g  c #1C222C",
"h  c #1D2334",
"j  c #1D2738",
"k  c #242B34",
"l  c #242C3C",
"z  c #242437",
"x  c #38243D",
"c  c #2A333E",
"v  c #323232",
"b  c #2F2A28",
"n  c #410016",
"m  c #44011B",
"M  c #4C031D",
"N  c #4C0A1F",
"B  c #460A1D",
"V  c #53031E",
"C  c #5A051F",
"Z  c #57091F",
"A  c #61041F",
"S  c #450A21",
"D  c #4C0C22",
"F  c #430622",
"G  c #5D0620",
"H  c #540B23",
"J  c #5C0C23",
"K  c #441227",
"L  c #481228",
"P  c #551326",
"I  c #5A1A29",
"U  c #581727",
"Y  c #431631",
"T  c #5C1E37",
"R  c #620621",
"E  c #650A22",
"W  c #6C0A23",
"Q  c #6A0722",
"!  c #730A24",
"~  c #7A0C25",
"^  c #7B0620",
"/  c #641C2D",
"(  c #731728",
")  c #6E1730",
"_  c #452824",
"`  c #5D2425",
"'  c #443225",
"]  c #4F382C",
"[  c #4D2D36",
"{  c #65272C",
"}  c #6C2C33",
"|  c #763A3B",
" . c #6D3035",
".. c #6C4D3C",
"X. c #76443E",
"o. c #754B37",
"O. c #7F793E",
"+. c #252E42",
"@. c #2B2B41",
"#. c #2B3343",
"$. c #2B344B",
"%. c #2E394F",
"&. c #353947",
"*. c #363C4E",
"=. c #39374A",
"-. c #333C53",
";. c #373951",
":. c #35334C",
">. c #472D47",
",. c #532F49",
"<. c #473747",
"1. c #563248",
"2. c #643145",
"3. c #69394C",
"4. c #3E414E",
"5. c #354055",
"6. c #394558",
"7. c #3E4C63",
"8. c #434347",
"9. c #424958",
"0. c #7B4840",
"q. c #7D5944",
"w. c #725352",
"e. c #454C64",
"r. c #455363",
"t. c #4B5B6D",
"y. c #48576B",
"u. c #555968",
"i. c #4F5E75",
"p. c #615D70",
"a. c #546577",
"s. c #4F6077",
"d. c #810F25",
"f. c #8B1327",
"g. c #831025",
"h. c #951828",
"j. c #84303A",
"k. c #8A5836",
"l. c #8C6237",
"z. c #99733D",
"x. c #93693B",
"c. c #8D394A",
"v. c #824943",
"b. c #845545",
"n. c #935D4E",
"m. c #924456",
"M. c #8C644D",
"N. c #986752",
"B. c #9C7357",
"V. c #927249",
"C. c #A6755B",
"Z. c #A5795A",
"A. c #AB7C5C",
"S. c #A8775C",
"D. c #805866",
"F. c #B37966",
"G. c #8F8448",
"H. c #AC8B46",
"J. c #B5974B",
"K. c #AF835A",
"L. c #B38A5A",
"P. c #BA965D",
"I. c #BEA155",
"U. c #BBA24E",
"Y. c #B48363",
"T. c #B88C67",
"R. c #C3AB55",
"E. c #C4A95B",
"W. c #CAB45B",
"Q. c #CEBA5F",
"!. c #C7B158",
"~. c #D0BD5F",
"^. c #C49F67",
"/. c #C59173",
"(. c #CFB765",
"). c #D0BC63",
"_. c #D3B96B",
"`. c #C8A46D",
"'. c #D4C364",
"]. c #D8C969",
"[. c #DED16D",
"{. c #DECB71",
"}. c #E0D36E",
"|. c #E3D670",
" X c #E5D972",
".X c #E8D974",
"XX c #EEE277",
"oX c #5E7387",
"OX c #657A91",
"+X c #8B7D86",
"@X c #7F848B",
"#X c #81838A",
"$X c #8A8A8A",
"%X c #8D8E94",
"&X c #9B8991",
"*X c #999A9C",
"=X c #958A92",
"-X c #B08A92",
";X c #A5939B",
":X c #B19299",
">X c #9A9DA6",
",X c #B3ABAF",
"<X c #CFA781",
"1X c #C2B8BB",
"2X c #BEBFC1",
"3X c #C0BEC0",
"4X c #BFC0C1",
"5X c #C4C3C4",
"6X c #CAC6C6",
"7X c #CCCDCC",
"8X c #C8C7C8",
"9X c #CFD1D0",
"0X c #D2D3D2",
"qX c #CFD0CF",
/* pixels */
"                                                                                                                                ",
"                                                                                                                                ",
"                                                                                                                                ",
"                                                                                                                                ",
"                                                                                                                                ",
"                                                                                                                                ",
"                                                                                                                                ",
"                                      .                                                  X                                      ",
"                                    . . .                                              X X X                                    ",
"                                    . . .                                              X X X X X X X                            ",
"                                    . . .                                             [.[.}. X X X X                            ",
"                                    . . .                               G !         [.'.Q.'.}. X X X X X                        ",
"                                    o + 2                           m M G ! ~     |.].Q.R.!.]. X|. X X X X                      ",
"                                    ' ] w.                        M V C G R ( l.R.).Q.Q.!.W.Q.'.}. X X X X                      ",
"                                    M.B.T.`./.j.~ ^ ! C M       m M R Q G C { x.J.U.U.Q.'.Q.R.!.].|. X X X X X                  ",
"                                    Y.T./.<XF.j.W ! ! E C M     m M Q W R M ` k.z.H.J.!.'.Q.!.!.~.].}.|. X X X                  ",
"                                    Y.Y.T.T.N.} C Q ! ! Q G M m m M Q ! A M N ` o.z.H.U.R.Q.'.~.!.!.'.|. X X|. X X              ",
"                                    b.M.B.M.0.U V C ! ! Q G M m m M G Q C m m m ` l.H.J.J.E.).).I.I.).|.XX X X X X              ",
"                                  + 3 ' ' ' K B M V G G C V m m m m V V V m > m ` k.H.J.L.P.^.^.L.P.).|..X X X X X              ",
"                                . . O o o + $ ; > m m m m M m m m m m M m B B H { x.H.L.K.A.Z.Z.A.T.(.{. X X X X X              ",
"                              . . . . X . . X + = = ; ; m m m m m m m m m m P  .k.B.H.L.K.M.....B.Y.^._.{..XXXXX                ",
"                            . . . . o o o o o X X X + ; > m m m m m m m m S { v.B.S.F.Y.A...b ' b.Z.K.L.`.'.].                  ",
"                            . . . * v 8.8.8.v * . . X = , > m m m m m m m m P k.N.S.K.Y.S.b.] ] ..b.q.q.O.G.O.                  ",
"                                    $X*X*X*X$X        & r t > m m m m m M F F P | n.A.Y.A.B.M.0. .I 1 1 b 3 2 O O               ",
"                                    7X7X7X7X7X        9 8 i y > > > : > > m m m U X.n.C.A.S.N.v.I < + X . O O % *               ",
"                                    0X9XqXqX0X        9 5 6 i r r i i t y m m m N U | n.C.N.| / N < + . . . 7 4.r.              ",
"                                    7X7X7XqX0X        6 8 9 5 5 8 5 8 6 r > > m m m U | n.v.I B B : $ . . O k r.oX              ",
"                                    7X7X7X7X0X      : i 5 9 9 9 9 9 9 5 6 r , m m m N / } / N F d d q % . O k t.OX              ",
"                                    7X7X7X7XqX    n > t 6 8 9 5 8 5 4 9 8 6 r > > m m F D S F Y >.*.z 4 o % k t.OX              ",
"                                    7X7X7X7X,Xw.B n m : t 6 8 5 9 9 8 8 9 5 q t y y y - y y d >.e.7.l 5 7 k 6.i.                ",
"                                    7X7X7X8X;X3.m n m m > t 6 5 5 8 9 5 8 9 5 6 q 6 6 6 q z :.9.a.t.k * c r.a.                  ",
"                                    7X7X0X5X&X1.> > m m m : p 6 8 8 8 8 8 5 5 9 9 w w h l $.7.y.y.6.c c 6.a.                    ",
"                                    7X7X0X5X%X<.t < m m m m > t 6 8 8 8 8 5 5 8 w +.$.%.-.7.s.y.c k 4.r.a.                      ",
"                                    7X7XqX5X%X9.6 - > > m m m y r 6 8 8 9 h w w +.-.6.5.%.7.y.6.g g 6.a.                        ",
"                                    7XqX0X5X%X4.8 e t : m m m m : t 6 9 j +.$.$.5.y.t.5.h g k k j c 6.                          ",
"                                    7X7X0X5X%X4.8 8 i t u m m m m > t a z $.%.%.6.i.y.c % O % g c 5.                            ",
"                                    0X7X0X3X%X6.w h z f t y > m m m B K d g k h c 5.*.g o % k %.5.                              ",
"                                    6X7X0X5X%X<.w +.$.@.a t m m M M J J , $ # o % 9 0 & % g r.a.                                ",
"                                    ,X6X0X8X*X9.@.%.-.@.a u F G C C J N < X . . . # @ % 7 #.a.                                  ",
"              ~ ~ ~ ~           n 2.&X3X0X3X>Xi.-.-.;.@.u M R ! W E L p % . . . . . # g #.5.                                    ",
"            ! Q W W W !         > [ F.2X0X9X>XoX6.;.:.Y H R ! ! W P s 5 # O O # % % 7 j -.                                      ",
"          ~ Q G V V C Q ~ ~ ~ H u >.#X4X0X4X>Xs.;.x L H Q ! ~ W L s 6 5 # . # g l +.+.#.                                        ",
"          W E V m m M G W ~ ~ G p =.#X4X0X8X>Xp.>.Y D G E W E P p 0 9 0 & % 8 +.5.5.5.                                          ",
"        G C G M m m m V C Q ! J p =.#X4X0X8X;Xw.T J J H L L Y p q 9 j +.l j l *.                                                ",
"          M M     m m m M G W P p ;.@X2X0X7X:Xc.~ ! E K a q i 6 6 w c :.;.;.;.                                                  ",
"                    m m m S D u i -.@X2X0X7X-Xc.~ ^ W Y 6 5 i r r p x ,.,.1.,.                                                  ",
"                      m m u t 6 8 =.+X2X0X3X-Xc.~         t > > u F J ) ) ) )                                                   ",
"                        > t 5 4 5 =.%X3X0X8X:Xm.~         t : u M G ! g.g.~ ~                                                   ",
"                          i 5 4 5 &.#X,X0X0X1X          8 5 i u H ! f.h.f.g.~                                                   ",
"                            6 5 6 *.%X5X0X9X7X        i 6 6 8 p P g.h.h.h.g.!                                                   ",
"                            , - $ u.,X8X7X7X0X      > > t i 6 s J ~ f.f.f.                                                      ",
"                            > >     8X7X7X7X0X    n m m > y i s / ~ d.~ ~                                                       ",
"                                    0X7X7X7X0X    n n m m B K L E ! ~                                                           ",
"                                    9X7X7X7X0X    < m m M V E W                                                                 ",
"                                    7XqXqX8X,X    m m M V R !                                                                   ",
"                                    7X7XqX6X:X3.m n M C Q !                                                                     ",
"                                      7X0X5X&X2.M M V E !                                                                       ",
"                                        0X5X&X2.M V Q !                                                                         ",
"                                          5X&X2.M A W !                                                                         ",
"                                                V V G Q !                                                                       ",
"                                                  M V C !                                                                       ",
"                                                    M R !                                                                       ",
"                                                                                                                                ",
"                                                                                                                                "
};
