/* XPM */
static char *oie_tnAQmokH7PM31705783250[] = {
/* columns rows colors chars-per-pixel */
"64 64 221 2 ",
"   c None",
".  c #010001",
"X  c #0B0305",
"o  c #0B0907",
"O  c #050609",
"+  c #06090C",
"@  c #0A0B0E",
"#  c #0A050D",
"$  c #140008",
"%  c #16120F",
"&  c #0B0D12",
"*  c #0C0E19",
"=  c #060A10",
"-  c #14051B",
";  c #0E111D",
":  c #0E1114",
">  c #11141C",
",  c #1A131A",
"<  c #27000E",
"1  c #2C0A1F",
"2  c #2E0613",
"3  c #350015",
"4  c #3C0015",
"5  c #33051D",
"6  c #3D031B",
"7  c #33081F",
"8  c #231B18",
"9  c #35271E",
"0  c #0F1626",
"q  c #131525",
"w  c #1C1325",
"e  c #141728",
"r  c #131829",
"t  c #1A1C2D",
"y  c #191725",
"u  c #191F31",
"i  c #161E30",
"p  c #210E22",
"a  c #2C0B21",
"s  c #310B21",
"d  c #3C0820",
"f  c #231225",
"g  c #271728",
"h  c #341427",
"j  c #391428",
"k  c #271E32",
"l  c #3B1B35",
"z  c #1B212A",
"x  c #1B2233",
"c  c #1F273B",
"v  c #2B2729",
"b  c #3F3125",
"n  c #23293C",
"m  c #262638",
"M  c #3A283A",
"N  c #28303F",
"B  c #44001B",
"V  c #4B021D",
"C  c #480017",
"Z  c #53031D",
"A  c #5B031E",
"S  c #62031E",
"D  c #6D051F",
"F  c #77031E",
"G  c #480923",
"H  c #5C0520",
"J  c #5B0B23",
"K  c #5D1C2A",
"L  c #561328",
"P  c #471E33",
"I  c #551733",
"U  c #481329",
"Y  c #630721",
"T  c #6E0620",
"R  c #660922",
"E  c #6C0923",
"W  c #730B24",
"Q  c #7B0C25",
"!  c #760F28",
"~  c #6B132B",
"^  c #671429",
"/  c #751128",
"(  c #6C1A33",
")  c #681A33",
"_  c #731D34",
"`  c #5B263A",
"'  c #4C342A",
"]  c #67212B",
"[  c #682836",
"{  c #772437",
"}  c #673637",
"|  c #5D4533",
" . c #4C482E",
".. c #6B4D3B",
"X. c #785138",
"o. c #252E42",
"O. c #2C2B42",
"+. c #3A2C44",
"@. c #2B364C",
"#. c #2D394D",
"$. c #293142",
"%. c #343A49",
"&. c #313B53",
"*. c #373D56",
"=. c #4A2A42",
"-. c #552C45",
";. c #463649",
":. c #53324A",
">. c #433952",
",. c #4B3A53",
"<. c #523D56",
"1. c #6D3946",
"2. c #703348",
"3. c #37424F",
"4. c #36435C",
"5. c #3E4B59",
"6. c #3A4558",
"7. c #3D4D65",
"8. c #3C4A63",
"9. c #3E5068",
"0. c #43435A",
"q. c #564D53",
"w. c #4F4E4E",
"e. c #7C4445",
"r. c #6F5646",
"t. c #77534D",
"y. c #776B47",
"u. c #444E66",
"i. c #594B64",
"p. c #42516A",
"a. c #4A596A",
"s. c #575B6E",
"d. c #4C5D74",
"f. c #475970",
"g. c #5B5B72",
"h. c #675C73",
"j. c #685365",
"k. c #576378",
"l. c #6E6B67",
"z. c #8C1326",
"x. c #941828",
"c. c #850D25",
"v. c #A01E2A",
"b. c #872935",
"n. c #A7212B",
"m. c #88583B",
"M. c #903B49",
"N. c #824742",
"B. c #8A564A",
"V. c #925B4C",
"C. c #8C4E53",
"Z. c #95664F",
"A. c #996551",
"S. c #8F714C",
"D. c #A46955",
"F. c #A6775A",
"G. c #935E62",
"H. c #9B7775",
"J. c #8E6E6E",
"K. c #A97962",
"L. c #B37460",
"P. c #AF8D4B",
"I. c #AF9144",
"U. c #B69A4A",
"Y. c #B39548",
"T. c #B48F56",
"R. c #B8A654",
"E. c #8B857E",
"W. c #B58765",
"Q. c #BD926A",
"!. c #A2817C",
"~. c #BC8B73",
"^. c #AC8768",
"/. c #948A46",
"(. c #C3AB55",
"). c #C9B45A",
"_. c #C39670",
"`. c #C3B863",
"'. c #D2BC67",
"]. c #CFAF71",
"[. c #D5C465",
"{. c #DAC76B",
"}. c #CFC168",
"|. c #E5DA72",
" X c #E4D674",
".X c #E1D36E",
"XX c #EEE276",
"oX c #596D83",
"OX c #566A81",
"+X c #5D7188",
"@X c #62768C",
"#X c #63788E",
"$X c #62748A",
"%X c #999288",
"&X c #989894",
"*X c #8E8A81",
"=X c #B7968D",
"-X c #B1948A",
";X c #A4A19A",
":X c #B5A494",
">X c #BEB4A1",
",X c #D3AB82",
"<X c #D7B489",
"1X c #C3AD9D",
"2X c #D5AF89",
"3X c #E1BD91",
"4X c #C8BAA7",
"5X c #D5BEAA",
"6X c #E5C295",
"7X c #ECC898",
"8X c #EECE94",
"9X c #CAC1AD",
"0X c #D3C2AE",
"qX c #D5CAB3",
"wX c #DACDB6",
"eX c #DDD1B9",
"rX c #E1D6BC",
"tX c #E3D9BF",
"yX c #E5DBC1",
"uX c #E9DDC2",
"iX c #EBE4C7",
/* pixels */
"                                                                                                                                ",
"                                                                                                                                ",
"                                                                                                                                ",
"                                                                                                                                ",
"                                                      |.|.|.|.|.|.|.|.|.|.                                                      ",
"                                                      [.[..X|.|.|.|.|.|.|.                                                      ",
"                                                  XX{.(.(.{.|.|.|.|.|.|.|.|.|.                                                  ",
"                                                  [.[.).).).{.|. X{.].'.{.|.|.                                                  ",
"                                                  U.R.'.{.R.(.{.{.Q.T.W.].{.|.                                                  ",
"                                                  I.U.).[.).R./.S.^.Z...S.}.XX                                                  ",
"                                                  Y.Y.U.(.[.R. .b S.B.9  .`.XX                                                  ",
"                                                  U.U.P.R.{.}.y.r.^.^.r.y.`.                                                    ",
"                                                  I.I.F.Q.{. X].<X<X<X<X2X                                                      ",
"                                                  m.m.D._.].8X6X7X7X7X7X7X                                                      ",
"                                                  B K m.W.,X6X3X6X6X6X<X3X                                                      ",
"                                                B 4 V [ B.W.,X3X6X6X,XH.V.              .               5.                      ",
"                                              6 B B B B K Z._.2X6X7X~.{ G             . . . . . . . . + 3.k.                    ",
"                                            y p 7 6 B 4 L V.W._.2X3X~._ I h.        . . . . . . . . . O z 3.a.                  ",
"                                          w y e y 7 B B L B.F.K.~.<X_.b.{ h.@X    . . . . . . . . . . . . : 5.@X                ",
"                                        G s a w e 7 V A ^ [ m.D.Q._.L.b.~ :.i.+X%.+ . . . . . . . . . . . + 5.@X                ",
"                                      B B B 6 a f 7 V R E Z ) B.K.^.A.z.S Z -.g.5.& . . O . . O . O . O . @ 5.@X                ",
"                                    B B B 6 B G U s s V A A R ] e.F.A.] A S ` u.@.+ O : * * * * * * z m : & 5.@X                ",
"                                  B B B B B Z E ^ h w 7 V R R A ] V.B.^ A R [ >.N & + ; 0 0 0 0 q e n @.> & 5.@X                ",
"                                  B B B B A R Q W j e w s G S S ~ b.b.~ Y H -.s.0.s $ @ O = * 0 * = > q + & 5.@X                ",
"                                  B B B V R ! E J h r r w s V R W W W W A B ;.k.i.G < X X X , v , . . . . @ 5.#X                ",
"                                B B B H Y Q Q L j y r r q w a G A A A Z V a m u.>.G 4 2 < 2 ` r.b . . . . @ 5.#X                ",
"                                B B V Y ! c.E j r r r r r r w s 6 6 6 6 s u n %.+.G B B B V e.D.| o . . . : 5.#X                ",
"                              B B B B H ! c.  w r q r r r r w w p p p p k O.+.l G B V B B G m.D.| o . . . : 0.#X                ",
"                                B V Z Y Q       q r e e e e r i u u u u o.&.+.G 4 4 3 4 2 6 } B.' O . . . & 3.oX                ",
"                                B H R W Q         r e e e e t o.&.@.@.@.@.      < $ $ X $ $ 8 M 8 . . . . + $.p.                ",
"                              3 B H Q Q Q         q e e e u n &.8.7.p.p.p.        . . O o O * ; * + @ : . + N 9.                ",
"                        . . . < 6 S W c.        O * e q t o.&.*.7.k.oXoXoX        . + ; ; ; 0 q 0 ; c o.> & 3.oX                ",
"                        . . . 2 ] { b.[       . O * r e u @.8.9.d.+X@X+XOX        . + * ; > * ; * q c n : & 3.oX                ",
"                          . . ' Z.D.D.' O . .     0 0 r x @.9.k.+X#XoXf.9.        . O O O O + O + + & & O + $.7.                ",
"                            o ..F.F.X.9 . . .     j g a k +.<.j.h.h.j.<.;.        . . . . . . . . . . . . O m 4.                ",
"                              D.F...8 o . .       ^ J G G J ( _ 2._ _ ~ (         . . . . . . . . . . . . o c 4.                ",
"                                X.b . . o  .      D S Z Z D W D F T Q Q Q         . . . . . . . . . . . & q $.4.                ",
"                                % o . . % l.eX    V V B Z E W A A W Q ! Q           . . . . . . . . . O z #.                    ",
"                              . . . o v q.-XeXiX  P 5 4 V E E Z V T / ) `             . . . O O . . . + n 4.                    ",
"                              . . .   :X>X0XeXrX>Xq.p 5 Z E E V Z E ( :.*.4.4.                                                  ",
"                              . .       iXrXeXrX9XE.q.U B Z A V Z T ) >.7.p.d.                                                  ",
"                            . .           eXwXeXwXqX:X1.B C V B Z T ) >.p.OX#X#X#X                                              ",
"                            .             &X;X4XrXuX0X!.e.^ Z V Z W ) >.9.d.oX@X#X                                              ",
"                                          0.g.&XqXrXwXqX=XC.R V V E ) >.4.8.f.+X#X@X@X                                          ",
"                                          I :.l.*X4XtXuX5X-XC.J C A L O.@.*.7.d.g.j.2.                                          ",
"                                      ! / ! ~ j %.%XwXeXwXwX=X2.B V d f c &.8.4.:._ ! Q c.                                      ",
"                                    c.z.z.z.W 7 t w.J.4XrXuX4X%Xe.) B p i o.O.M I W c.x.x.                                      ",
"                                    Q x.v.z.E j t r 3.-XwXeXeXqX=XM.L g r e f d H W z.x.n.                                      ",
"                                  Q Q z.z.Q H d a - m t.H.4XrXyX5X-XA.M - 1 1 1 G W z.z.x.                                      ",
"                                  / ! ! W A B B B     G [ -XrXeXwXwXwX    B a w j ~ Q Q Q                                       ",
"                                  -.-.P j s a 5       4 G J.yXyXrXrXiXyXJ.l - , k =.[ ~                                         ",
"                                  >.*.n t e e         B B     9X5XwXeXeX-X3.t t o.*.6.                                          ",
"                                ! I l k r 0           B B     C.H.1XrXeX4X%Xs.%.o.                                              ",
"                              / W H B p e             B B     B 1.:XyXeXeXeX;Xg.8.                                              ",
"                            Q R H V B 7                             uXyXyXrX4X;X&X                                              ",
"                            W A B B B                                 1X4XeXeXeXeX                                              ",
"                            A V B B                                 L 1.H.4XrXrXeXeX                                            ",
"                          V B B B                                 B C V 1.1XrXrXeXeXeX                                          ",
"                        ! H B B                                   B V S _   iXeXeXeXeXeX                                        ",
"                      ! E H B B                                   B G R T     wXeXwXeXeXeX                                      ",
"                    ! R A V B B                                   B V Z A T b.  tXeXeXwXeXeX                                    ",
"                    Q Y V 6 B                                     B B B A E F     eXeXeXwXeX                                    ",
"                                                                                                                                ",
"                                                                                                                                "
};
