/* XPM */
static char *oie_JHjoJED8Duzh__1_1705927655[] = {
/* columns rows colors chars-per-pixel */
"64 64 222 2 ",
"   c None",
".  c #020202",
"X  c #0C0206",
"o  c #0C0C0C",
"O  c #07070A",
"+  c #14020A",
"@  c #15070B",
"#  c #1B160A",
"$  c #0A0B11",
"%  c #090B14",
"&  c #1D0E1E",
"*  c #0F1218",
"=  c #0D1116",
"-  c #11151B",
";  c #13191E",
":  c #1A141C",
">  c #23000E",
",  c #2B061D",
"<  c #270717",
"1  c #350015",
"2  c #3A0117",
"3  c #34051D",
"4  c #3B041D",
"5  c #33081F",
"6  c #241B19",
"7  c #2A241C",
"8  c #3C3419",
"9  c #1B0E23",
"0  c #0E1223",
"q  c #0F1728",
"w  c #131626",
"e  c #1D1325",
"r  c #161C22",
"t  c #191F24",
"y  c #121728",
"u  c #141829",
"i  c #191728",
"p  c #240E23",
"a  c #2C0C22",
"s  c #330920",
"d  c #3D0B22",
"f  c #340720",
"g  c #221225",
"h  c #2B1629",
"j  c #3A1226",
"k  c #351529",
"l  c #231E32",
"z  c #291F34",
"x  c #1B222B",
"c  c #1A2026",
"v  c #1F2539",
"b  c #1B2033",
"n  c #39352F",
"m  c #34322C",
"M  c #252839",
"N  c #3A3630",
"B  c #373637",
"V  c #44011B",
"C  c #4B031D",
"Z  c #420017",
"A  c #53031E",
"S  c #5A041E",
"D  c #52081F",
"F  c #63051F",
"G  c #4A0A21",
"H  c #460A22",
"J  c #5B0620",
"K  c #590C24",
"L  c #411125",
"P  c #541326",
"I  c #5A1A29",
"U  c #57152B",
"Y  c #551A32",
"T  c #451D34",
"R  c #630721",
"E  c #640A23",
"W  c #6C0A23",
"Q  c #740C25",
"!  c #7B0D25",
"~  c #6B132C",
"^  c #631829",
"/  c #73172A",
"(  c #641D37",
")  c #48272A",
"_  c #453729",
"`  c #46273A",
"'  c #59223B",
"]  c #592B32",
"[  c #632435",
"{  c #6D3339",
"}  c #773C3D",
"|  c #6F242F",
" . c #4F411C",
".. c #53442A",
"X. c #584733",
"o. c #55502B",
"O. c #704D32",
"+. c #776A39",
"@. c #262E42",
"#. c #292F45",
"$. c #293244",
"%. c #2B3647",
"&. c #313C4D",
"*. c #3A3148",
"=. c #2E3A51",
"-. c #313C54",
";. c #323F59",
":. c #342E43",
">. c #443951",
",. c #483952",
"<. c #553B54",
"1. c #4B2D45",
"2. c #683C48",
"3. c #723B48",
"4. c #38414E",
"5. c #36435D",
"6. c #3E4C5D",
"7. c #384259",
"8. c #344760",
"9. c #47474D",
"0. c #49484F",
"q. c #464548",
"w. c #524B4C",
"e. c #4A4956",
"r. c #5E594E",
"t. c #7D4341",
"y. c #6A5743",
"u. c #75534D",
"i. c #706345",
"p. c #43526A",
"a. c #495969",
"s. c #465666",
"d. c #565665",
"f. c #504D65",
"g. c #53667A",
"h. c #5A6278",
"j. c #77736A",
"k. c #73777B",
"l. c #696A79",
"z. c #820E26",
"x. c #851126",
"c. c #8A1327",
"v. c #961828",
"b. c #9A1A28",
"n. c #84413F",
"m. c #85663A",
"M. c #8E793B",
"N. c #96584B",
"B. c #815144",
"V. c #9A6652",
"C. c #956651",
"Z. c #887357",
"A. c #967052",
"S. c #A6745C",
"D. c #A77A59",
"F. c #A26E5A",
"G. c #947E6B",
"H. c #A07B64",
"J. c #9C8C4D",
"K. c #B29547",
"L. c #B69A4A",
"P. c #B69949",
"I. c #A88F4A",
"U. c #BEA551",
"Y. c #B9A756",
"T. c #BAA04E",
"R. c #9A8365",
"E. c #878174",
"W. c #9A827A",
"Q. c #B98B69",
"!. c #B48762",
"~. c #B68A71",
"^. c #B49372",
"/. c #BAA272",
"(. c #C2AB55",
"). c #CAB55B",
"_. c #C7B259",
"`. c #D0BC5F",
"'. c #C49978",
"]. c #C19E66",
"[. c #C5A765",
"{. c #D1BD61",
"}. c #D4BC6C",
"|. c #C8A27A",
" X c #DACA68",
".X c #D7C46A",
"XX c #DDC677",
"oX c #E3D671",
"OX c #E5DA72",
"+X c #E8DC74",
"@X c #E1D46F",
"#X c #576A81",
"$X c #5F7388",
"%X c #63788E",
"&X c #627288",
"*X c #767D89",
"=X c #8F8B86",
"-X c #A49B89",
";X c #A29987",
":X c #A89F92",
">X c #B49B90",
",X c #A9A194",
"<X c #A9A395",
"1X c #B4AB99",
"2X c #B5A893",
"3X c #BCB4A5",
"4X c #D2AE86",
"5X c #DBB58A",
"6X c #D7B589",
"7X c #D2B188",
"8X c #E1BD92",
"9X c #C0B6A0",
"0X c #E3C58A",
"qX c #E6C296",
"wX c #EEC99A",
"eX c #EAC598",
"rX c #D5C9B3",
"tX c #DBCFB7",
"yX c #DCD0B8",
"uX c #DCD0B7",
"iX c #CDC3AE",
"pX c #E1D4BC",
/* pixels */
"                                                                                                                                ",
"                                                                                                                                ",
"                                                                                                                                ",
"                                                                                                                                ",
"                                                                                                                                ",
"                                                        OX+XOXOXOXOXOXoXOXoX                                                    ",
"                                                      +X+XOXOXOXOXOXOXoX X`.(.                                                  ",
"                                                    +X+XOXoXoXOXOXOXoX X).U.L.P.K.K.K.K.                                        ",
"                                                    +XoX X}.}.{.oXoX X`.).(.L.K.K.K.K.K.                                        ",
"                                                    oX.X[.!.!./.}. X).(.`.`.(.K.K.K.                                            ",
"                                                  +.(.(.A.u.A.!.J.J.T._.`.).U.P.K.P.                                            ",
"                                            %Xa.r 8 M.M...8 B.A...o.J..X).L.P.P.                                                ",
"                                          g.6.4.- #  .O.X.y.S.R.i.i./. X{.(.L.P.L.                                              ",
"                                        %Xa.M = . O #  .Z.'.7X4X>X/.6X0XXX{.(.K.K.K.                                            ",
"                                        %Xa.c . . . q w.;XwXwXeXeX0XqX0XXX[.I.m.+.+.                                            ",
"                                        %Xa.c . . - 4.k.4X8X8X8XeXeXqX5X|.D.} I ) n                                             ",
"                                        %Xa.t o r &.h.*XG.~.'.5X8X8X5X'.S.t.I 4 , p a                                           ",
"                                        %Xa.t ; &.g.$Xl.u.t.V.'.5X5X|.D.} I C V 3 4 V V                                         ",
"                                        %Xs.t c a.&Xh.<.Y ( N.'.|.|.Q.V.[ V 2 V V V V V V                                       ",
"                                        %Xs.t x s.h.<.U J / N.H.Q.].!.C.[ V V V V V V V V V                                     ",
"                                        %Xa.c t 6.f.' A F / n.C.F.S.V.B.I V Z C A A C V V V                                     ",
"                                        %Xs.t ; =.,.( R S D P { V.V.} K C V Z C S R A V V V                                     ",
"                                        %Xa.t ; -.<.[ R S A V P O.t.~ K C V V A W Q R A V V V                                   ",
"                                        %Xs.t t e.d.1.S F F A C U ^ E F A V V C R Q Q W A V V V                                 ",
"                                        g.6.r r 6.f.` d J E S A J J R R A V 1 1 H K Q Q R A C V                                 ",
"                                        p.&.- - &.;.M a V S R W W R J C C 1 > @ < j ^ Q Q R A C                                 ",
"                                        a.-.- - #.-.#.l a d S W W R C V 4 < + . % 9 L K W S C Z                                 ",
"                                        g.6.r - @.;.-.#.l a V A J C C 4 a & $ . . $ 6 k H A C C       . . .                     ",
"                                        #Xs.r % x $.$.@.M l a 3 3 3 3 , 9 0 $ . . . $ i ] { { { )   . . . .                     ",
"                                        p.&.- . $ * - u M #.M g g g g e i y w % O . . 6 u.~.^.H.X.X . . .                       ",
"                                        ;.@.= . . . . o b $.4.9.q.9.9.9.0.0.0.*.; . . 7 R.qXwX4Xy.o . .                         ",
"                                        7.@.* O . . . . o B j.<X<X,X,X,X,X<X<XE.B . . 7 R.8XwX5XR.                              ",
"                                        l.d.q.N N N n m m r.:XtXpXpXpXpXpXpXpX9Xj.m O # Z.8XwXqX                                ",
"                                    yXiX3X1X-X-X;X;X;X;X;X2XiXpXpXpXpXpXpXpXpXrX3XG.m o _                                       ",
"                                    yXyXuXuXyXuXuXuXtXtXtXtXuXrX1X<X,X,X:X>X>X>X>XG.N X O                                       ",
"        yXyXyXyXyXyXyXyXyXyXyXyXyXyXyXyXyXyXyXpXpXpXpXpXpXpXpX3Xj.e.0.0.0.w.w.3.3.{ 6 . . .                                     ",
"        yXyXyXyXyXyXyXyXuXyXyXuXyXyXyXyXyXyXyXyXuXuXyXuXyXrX3X=X9.i y y i 9 f V V 4 > X . . +                                   ",
"          yXyXtXyXuXyXyXyXyXyXyXyXyXyXyX                    *Xd.M w 0 q w 9 3 V Z Z 2 > X X > V V V                             ",
"            yXyXyXyXuXyXyXyXyXyXyXyXyXyX                    5.;.@.b u u i e s V V V V 2 > + 1 2 C V                             ",
"                                                            ;.;.=.#.b y y e s V V V C Z 2 1 2                                   ",
"                                                            5.5.5.=.v y w e 5 V C V V V V V                                     ",
"                                                            5.5.8.=.v i y e 5 V V V V V V V                                     ",
"                                                            >.>.>.*.M y y e , 4 V V V V V V                                     ",
"                                                            ( ( ( Y h y y u e g 4 V V V V V V V V V                             ",
"                                                            x.x.! E d g g p h a 4 V V V 4 4 V V V V                             ",
"                                                            b.v.x.W G f f d G K C V V 4 s a f V V                               ",
"                                                            b.b.x.W G f f G W Q E C V 5 e e 5 2 C                               ",
"                                                            c.x.z.E H g p j / v.! K d e w e 5 V V V V V                         ",
"                                                            ! ! / Y h y q k / v.x.W k l g k H C C V V V V                       ",
"                                                                1.` M y q h ^ c.x.~ 1.:.` K E R A V V V V V                     ",
"                                                                7.-.v y q h P Q ! ~ ,.>.Y ! ! W S V V V V V                     ",
"                                                                5.-.v y w i j                           V V                     ",
"                                                                >.*.M g e e                             V V                     ",
"                                                                ( Y H f f f                                                     ",
"                                                                ! W J C V V                                                     ",
"                                                                    W J A C                                                     ",
"                                                                    ! W J V                                                     ",
"                                                                    ! W J V                                                     ",
"                                                                    ! W J V                                                     ",
"                                                                    ! W A V                                                     ",
"                                                                    Q R J V                                                     ",
"                                                                  W R A V V                                                     ",
"                                                                ! W A C V V                                                     ",
"                                                                                                                                "
};
