/* XPM */
static char *oie_tnAQmokH7PM3__1_1705783296[] = {
/* columns rows colors chars-per-pixel */
"64 64 221 2 ",
"   c None",
".  c #010001",
"X  c #0B0305",
"o  c #0B0907",
"O  c #050609",
"+  c #06090C",
"@  c #0A0B0E",
"#  c #0A050D",
"$  c #140008",
"%  c #16120F",
"&  c #0B0D12",
"*  c #0C0E19",
"=  c #060A10",
"-  c #14051B",
";  c #0E111D",
":  c #0E1114",
">  c #11141C",
",  c #1A131A",
"<  c #27000E",
"1  c #2C0A1F",
"2  c #2E0613",
"3  c #350015",
"4  c #3C0015",
"5  c #33051D",
"6  c #3D031B",
"7  c #33081F",
"8  c #231B18",
"9  c #35271E",
"0  c #0F1626",
"q  c #131525",
"w  c #1C1325",
"e  c #141728",
"r  c #131829",
"t  c #1A1C2D",
"y  c #191725",
"u  c #191F31",
"i  c #161E30",
"p  c #210E22",
"a  c #2C0B21",
"s  c #310B21",
"d  c #3C0820",
"f  c #231225",
"g  c #271728",
"h  c #341427",
"j  c #391428",
"k  c #271E32",
"l  c #3B1B35",
"z  c #1B212A",
"x  c #1B2233",
"c  c #1F273B",
"v  c #2B2729",
"b  c #3F3125",
"n  c #23293C",
"m  c #262638",
"M  c #3A283A",
"N  c #28303F",
"B  c #44001B",
"V  c #4B021D",
"C  c #480017",
"Z  c #53031D",
"A  c #5B031E",
"S  c #62031E",
"D  c #6D051F",
"F  c #77031E",
"G  c #480923",
"H  c #5C0520",
"J  c #5B0B23",
"K  c #5D1C2A",
"L  c #561328",
"P  c #471E33",
"I  c #551733",
"U  c #481329",
"Y  c #630721",
"T  c #6E0620",
"R  c #660922",
"E  c #6C0923",
"W  c #730B24",
"Q  c #7B0C25",
"!  c #760F28",
"~  c #6B132B",
"^  c #671429",
"/  c #751128",
"(  c #6C1A33",
")  c #681A33",
"_  c #731D34",
"`  c #5B263A",
"'  c #4C342A",
"]  c #67212B",
"[  c #682836",
"{  c #772437",
"}  c #673637",
"|  c #5D4533",
" . c #4C482E",
".. c #6B4D3B",
"X. c #785138",
"o. c #252E42",
"O. c #2C2B42",
"+. c #3A2C44",
"@. c #2B364C",
"#. c #2D394D",
"$. c #293142",
"%. c #343A49",
"&. c #313B53",
"*. c #373D56",
"=. c #4A2A42",
"-. c #552C45",
";. c #463649",
":. c #53324A",
">. c #433952",
",. c #4B3A53",
"<. c #523D56",
"1. c #6D3946",
"2. c #703348",
"3. c #37424F",
"4. c #36435C",
"5. c #3E4B59",
"6. c #3A4558",
"7. c #3D4D65",
"8. c #3C4A63",
"9. c #3E5068",
"0. c #43435A",
"q. c #564D53",
"w. c #4F4E4E",
"e. c #7C4445",
"r. c #6F5646",
"t. c #77534D",
"y. c #776B47",
"u. c #444E66",
"i. c #594B64",
"p. c #42516A",
"a. c #4A596A",
"s. c #575B6E",
"d. c #4C5D74",
"f. c #475970",
"g. c #5B5B72",
"h. c #675C73",
"j. c #685365",
"k. c #576378",
"l. c #6E6B67",
"z. c #8C1326",
"x. c #941828",
"c. c #850D25",
"v. c #A01E2A",
"b. c #872935",
"n. c #A7212B",
"m. c #88583B",
"M. c #903B49",
"N. c #824742",
"B. c #8A564A",
"V. c #925B4C",
"C. c #8C4E53",
"Z. c #95664F",
"A. c #996551",
"S. c #8F714C",
"D. c #A46955",
"F. c #A6775A",
"G. c #935E62",
"H. c #9B7775",
"J. c #8E6E6E",
"K. c #A97962",
"L. c #B37460",
"P. c #AF8D4B",
"I. c #AF9144",
"U. c #B69A4A",
"Y. c #B39548",
"T. c #B48F56",
"R. c #B8A654",
"E. c #8B857E",
"W. c #B58765",
"Q. c #BD926A",
"!. c #A2817C",
"~. c #BC8B73",
"^. c #AC8768",
"/. c #948A46",
"(. c #C3AB55",
"). c #C9B45A",
"_. c #C39670",
"`. c #C3B863",
"'. c #D2BC67",
"]. c #CFAF71",
"[. c #D5C465",
"{. c #DAC76B",
"}. c #CFC168",
"|. c #E5DA72",
" X c #E4D674",
".X c #E1D36E",
"XX c #EEE276",
"oX c #596D83",
"OX c #566A81",
"+X c #5D7188",
"@X c #62768C",
"#X c #63788E",
"$X c #62748A",
"%X c #999288",
"&X c #989894",
"*X c #8E8A81",
"=X c #B7968D",
"-X c #B1948A",
";X c #A4A19A",
":X c #B5A494",
">X c #BEB4A1",
",X c #D3AB82",
"<X c #D7B489",
"1X c #C3AD9D",
"2X c #D5AF89",
"3X c #E1BD91",
"4X c #C8BAA7",
"5X c #D5BEAA",
"6X c #E5C295",
"7X c #ECC898",
"8X c #EECE94",
"9X c #CAC1AD",
"0X c #D3C2AE",
"qX c #D5CAB3",
"wX c #DACDB6",
"eX c #DDD1B9",
"rX c #E1D6BC",
"tX c #E3D9BF",
"yX c #E5DBC1",
"uX c #E9DDC2",
"iX c #EBE4C7",
/* pixels */
"                                                                                                                                ",
"                                                                                                                                ",
"                                                                                                                                ",
"                                                                                                                                ",
"                                                      |.|.|.|. X|.|.|.|.|.                                                      ",
"                                                      |.|.|.|. X|.|..X{.{.                                                      ",
"                                                  |.|. X|. X X X|.|.{.(.).{.|.                                                  ",
"                                                  |. X{.'.'.{. X|.{.).(.).[.[.                                                  ",
"                                                  |..X_.W.W._.{.[.(.(.[.[.R.U.                                                  ",
"                                                  |.}./...S.^.S./.R.).[.).U.I.                                                  ",
"                                                  XX`. .9 B.Z.b  .R.[.(.U.Y.Y.                                                  ",
"                                                    R.y.r.^.^.t.y.`.{.R.P.U.U.                                                  ",
"                                                      <X2X3X3X2X]. X[.Q.P.P.I.                                                  ",
"                                                      8X7X3X3X7X8X8X<XQ.A.m.X.                                                  ",
"                                                      3X3X3X7X3X6X6X].W.B.K B                                                   ",
"                      5.              .               Z.K.2X3X3X6X,XW.C.[ V 6 C                                                 ",
"                    oX3.o . . . . . . . .             G [ ~.3X3X<XQ.V.K B B B B B                                               ",
"                  a.3.z O . . . . . . . . .         h.I _ _.3X,X_.W.V.L 4 B 6 1 f e                                             ",
"                @X5.: . . . . . . . . . . . .     @Xh.2.b._.2X_.W.F.B.^ B B 7 w e e w                                           ",
"                @X5.+ . . . . . . . . . . . + %.oXi.-.~ b.L._._.D.X.[ ^ A B 7 w w a s B                                         ",
"                #X5.@ . O O O . O . O . . . & 5.k.=.H S z.A.W.^.V.K H R R B 7 f a 6 B B B                                       ",
"                $X5.& & x t ; & & * * * & O + @.i.-.H Z ] Z.D.e.] R Y H G s h U G B B B B B                                     ",
"                #X5.: > @.n q q e q q q > # @ N 0.[ D Z K B.V.) Z T R G a w j E E V B B B B B                                   ",
"                #X5.& + > > & * 0 * = + & $ 1 0.s.` A A / b.b./ Y S G s w e j E Q E H B B B B                                   ",
"                #X5.@ . . . . > k , X X X < G i.k.=.B Y W W W W Y V s w e e h J W W R V B B B                                   ",
"                #X5.@ . . . X b r.' 3 < 2 4 G ,.p.O.a B A Z Z A G a w e e e w h L W W E A V B B                                 ",
"                @X5.@ . . . o | D.X.V B B B G +.@.o.t s 6 6 d d 5 w e e e e r r j ~ Q Q Y V B B                                 ",
"                #X5.& . . . X | F.N.V B V B B G l +.$.k p p p p p e e e r e r r w   c.Q H B B B B                               ",
"                oX3.@ . . . O ' B.} 4 3 3 3 3 4 G +.*.o.i i u u u e e e e e e e       Q R Z V B                                 ",
"                p.$.+ . . . . 8 M g $ X $ $ $ <       #.@.@.@.@.o.t e e e e e         Q W E A B                                 ",
"                u.N + O & + + & 0 & O O O . .         p.p.p.7.8.&.n u e e e q         Q Q Q H B 4                               ",
"                oX3.@ ; o.m 0 0 q q ; 0 : + .         oXoXoXk.7.*.&.o.u q e * O         c.W A B < . . .                         ",
"                OX3.& : o.m q * ; ; ; q ; # .         oX+X#X@Xd.7.8.&.u q 0 ; O .       ] b.{ K 2 . . .                         ",
"                u.$.+ O & = O O O O O O O . .         u.f.oX#X@Xk.7.@.u q r 0     . . O ' A.D.V.' X .                           ",
"                4.c O . . . . . . . . . . . .         ;.,.i.h.h.g.<.+.f f h h     . . . 9 X.^.T...o                             ",
"                4.n O . . . . . . . . . . . .         ( ( _ _ { _ ( ^ G G J ~       . . o 8 ..F.S.                              ",
"                4.n y & . . . . . . . . . . .         Q Q Q W D T W T Z Z Y D        .o . . b X.                                ",
"                    #.z O . . . . . . . . .           Q W Q T A A E T V B V C     wXl., . . o %                                 ",
"                    4.n O . . . . . . . .             ` ) / E V Z E E Z 3 5 P   iXwX;Xq.v o . . O                               ",
"                                                  4.4.*.:.( T Z Z E E V 5 f q.>XtXeX0X>X:X  . . .                               ",
"                                                  d.f.7.*.) E Z V H A B j q.*X9XeXeXyXyX      . .                               ",
"                                              @X@X@XOX9.>.) E V B V B B e.=XqXwXeXeXeX          . .                             ",
"                                              #X@XOXd.9.>.) W H B V ^ e.H.0XtXrX9X;X&X            .                             ",
"                                          @X#X#X+Xf.8.8.>.) T Z Z T C.=XwXwXrXwX&Xs.0.                                          ",
"                                          2.j.g.d.9.*.@.M L Z C L C.~.5XuXyX4X*Xj.:.I                                           ",
"                                      Q Q Q _ <.*.8.&.c w 6 B B 2.=XwXwXeXwX%X%.j ^ Q Q Q                                       ",
"                                      x.z.c.W I M O.o.u w B / C.H.9XyXtX4XE.w.u h W z.x.x.Q                                     ",
"                                      n.v.z.W H d f e e g L M.=XwXeXeXwX%X>.r t j E z.x.x.!                                     ",
"                                      x.x.c.W G 1 a 1 - M G.-X5XtXrX4XH.t.m - a 6 J Q x.z.Q Q                                   ",
"                                      Q Q ! ~ j p a 6     wX0XwXeXrX-X[ G     B 6 B J W Q / !                                   ",
"                                        / -.` k > - j J.uXyXtXeXyXyXJ.G 4       s a s j P -.:.                                  ",
"                                          4.*.n t y 0.;XrXeXwX5X0X    B B         q w e m *.>.                                  ",
"                                              o.%.s.%X4XeXeX4XH.C.    B B           r r k l I !                                 ",
"                                              8.l.;XeXeXeXtX:X1.6     B B             e p B H E Q                               ",
"                                              &X;X9XeXtXtXiX                            5 B V H R Q                             ",
"                                              eXwXeXwX9X1X                                B B B H W                             ",
"                                            eXeXrXrX4XH.1.L                                 B B V H                             ",
"                                          eXeXwXrXtX1X2.B B B                                 B B B V                           ",
"                                        eXeXeXeXwXiX  _ S V B                                   B B H Q                         ",
"                                      eXeXwXeXeXwX    E R Z B                                   B B H E W                       ",
"                                    eXwXeXeXwXyX  b.T A V V B                                   B B V A R Q                     ",
"                                    eXeXwXeXeX    F W A B B B                                     B B B Y Q                     ",
"                                                                                                                                ",
"                                                                                                                                "
};
