/* XPM */
static char *oie_20213639xgVR09iO1705783069[] = {
/* columns rows colors chars-per-pixel */
"64 64 200 2 ",
"   c None",
".  c #31231E",
"X  c #1C1B23",
"o  c #241C29",
"O  c #29232D",
"+  c #2B272D",
"@  c #352620",
"#  c #3B2B23",
"$  c #31272A",
"%  c #3E312E",
"&  c #292733",
"*  c #2D2D3D",
"=  c #262534",
"-  c #312937",
";  c #33313E",
":  c #3C373E",
">  c #433329",
",  c #433227",
"<  c #4A3B36",
"1  c #513F34",
"2  c #584637",
"3  c #574639",
"4  c #6A533F",
"5  c #342F43",
"6  c #323143",
"7  c #3A3541",
"8  c #3B3845",
"9  c #3B354C",
"0  c #3C3A4A",
"q  c #373948",
"w  c #3D3D54",
"e  c #373B52",
"r  c #423E4C",
"t  c #403D43",
"y  c #423D53",
"u  c #4C3A50",
"i  c #3B4055",
"p  c #3E435B",
"a  c #45414C",
"s  c #4A444F",
"d  c #51464B",
"f  c #524540",
"g  c #454253",
"h  c #4A4555",
"j  c #42445D",
"k  c #4B465E",
"l  c #4E4A5B",
"z  c #474B5B",
"x  c #524B53",
"c  c #56455D",
"v  c #524D5C",
"b  c #58465D",
"n  c #53515B",
"m  c #5D555D",
"M  c #604C40",
"N  c #6B5542",
"B  c #715A46",
"V  c #785F4A",
"C  c #7A624E",
"Z  c #4B4760",
"A  c #434B64",
"S  c #4C4962",
"D  c #4D4E68",
"F  c #534E62",
"G  c #5B4C64",
"H  c #5B4B64",
"J  c #4C516B",
"K  c #565263",
"L  c #5A5465",
"P  c #51536E",
"I  c #5B5469",
"U  c #5E596A",
"Y  c #5E5867",
"T  c #4D5871",
"R  c #525671",
"E  c #535B76",
"W  c #545D79",
"Q  c #624F69",
"!  c #62536C",
"~  c #625D6D",
"^  c #635C64",
"/  c #675772",
"(  c #685672",
")  c #645D72",
"_  c #6C5B72",
"`  c #665C7A",
"'  c #6B5D7B",
"]  c #725E7D",
"[  c #57617D",
"{  c #67616D",
"}  c #696168",
"|  c #666274",
" . c #6B6475",
".. c #6D6977",
"X. c #6C647C",
"o. c #6F697B",
"O. c #716A72",
"+. c #736B7D",
"@. c #72627D",
"#. c #76707F",
"$. c #82664D",
"%. c #896C55",
"&. c #866D58",
"*. c #8D7056",
"=. c #8F7458",
"-. c #927257",
";. c #A07D5E",
":. c #A07F65",
">. c #9F8064",
",. c #AD8B6C",
"<. c #A78566",
"1. c #B28D6B",
"2. c #BA9575",
"3. c #C39A74",
"4. c #5B6482",
"5. c #5C6986",
"6. c #5E6A88",
"7. c #6D6281",
"8. c #616D8D",
"9. c #746481",
"0. c #756B82",
"q. c #7A6C85",
"w. c #7D6E8A",
"e. c #766885",
"r. c #62708F",
"t. c #7C7484",
"y. c #7D738C",
"u. c #7F798D",
"i. c #7F7890",
"p. c #677596",
"a. c #826E8E",
"s. c #84738C",
"d. c #827B8B",
"f. c #837889",
"g. c #846E93",
"h. c #867492",
"j. c #897692",
"k. c #857D92",
"l. c #8B7B95",
"z. c #8C7D99",
"x. c #907B9D",
"c. c #89838D",
"v. c #85818D",
"b. c #898391",
"n. c #8F849C",
"m. c #8F8A99",
"M. c #878190",
"N. c #938C9C",
"B. c #928698",
"V. c #96919E",
"C. c #999398",
"Z. c #9585A1",
"A. c #9A8BA5",
"S. c #9B84AB",
"D. c #9B8BAB",
"F. c #968AA3",
"G. c #9691A2",
"H. c #9C94A4",
"J. c #9D94AA",
"K. c #9F98AA",
"L. c #A18BAE",
"P. c #A394AD",
"I. c #A39BAC",
"U. c #A69AA8",
"Y. c #A495B2",
"T. c #A99BB6",
"R. c #AE9CBB",
"E. c #A89AB3",
"W. c #A6A3AC",
"Q. c #AAA2B4",
"!. c #ACA8B2",
"~. c #AEA3BB",
"^. c #A7A4B1",
"/. c #B1A4B4",
"(. c #B3A5BA",
"). c #B3AABB",
"_. c #BAAEBF",
"`. c #D6AC82",
"'. c #B59DC3",
"]. c #B5A6C3",
"[. c #B5ACC1",
"{. c #BAACC6",
"}. c #BDADCC",
"|. c #BAB2C2",
" X c #BEB2CC",
".X c #B7B2C2",
"XX c #C0AFCF",
"oX c #C0B0CF",
"OX c #C7BBCD",
"+X c #C6BBCA",
"@X c #C3B4D2",
"#X c #C7BAD5",
"$X c #CABAD5",
"%X c #CBBDD9",
"&X c #CEC0D6",
"*X c #CEC1DC",
"=X c #D5C9DB",
"-X c #D4C7DE",
";X c #D6CAE2",
":X c #DFD4E9",
/* pixels */
"                                                                                                                                ",
"                                                                                                                                ",
"                                                                                                                                ",
"                                                                                                                                ",
"                                                                                                                                ",
"                                                                                                                                ",
"                                                                                                                                ",
"                                                                                                            x.j.                ",
"                                                                                                h.z.Z.D.E.~.oXL.q.              ",
"                                                                                        n.Z.D.E.].{.}.}.}.@X&XB.                ",
"                                                                                x.A.E.].}.}.@X$X#X@X X}. X#XoXl.                ",
"                                                                            n.R.].}.@X#X@X#X$X@X@X}.}.#X#X X].a.                ",
"                                                                          0.OXoX}.}.XXXX}.}.@X@X}.}.*X#X}.@XT.q.                ",
"                                                                          H _.-X}.@XXXXXXXXXoX$X;X*X#X}.}.$XA.                  ",
"                                                                        G b _ =XoX@X@X#X%X-X;X$X+X;X X}.oX#Xx.                  ",
"                                                                        G Q u I.:X;X=X%X).k.m $ m.*X}.}.@X Xj.                  ",
"                                                                      H ( ( b /.U. .x - O O o X ).@X}.XX#XR.a.                  ",
"                                                                      Q 9._ q._.7 - 8 y k F 8 s @X}.}.oX#XP.                    ",
"                                                                    H ] a.9.P.B.9 F S k k S & O.%X}.}.@XoXn.                    ",
"                                                                    ( g.g.g.OXv y k Z k k F + H.$X}.}.@X}.j.                    ",
"                                                                  G h.x.g.R.U.5 S Z Z Z S k O {.@X}.XX#XR.a.                    ",
"                                                                G w.L.x.S.=Xx y c Z Z k S y : $XXX}.@X@XL.                      ",
"                                                              H g.x.L.x.$XC.5 S k Z Z S k - ^ =X}.XXXX@XZ.                      ",
"                                                            I y.x.'.x.}.).; S k k Z S w 5 O./.+X#XXXXX].l.                      ",
"                                                          7.x.D.'.x.R.{.a k D Z k k 9 F U.P._ Q H.oX@XY.s.                      ",
"                                                      ! y.D.S.S.x.'.{.0 0 P D D j 0 t.Q.s.H b c b q.l.q.                        ",
"                                                  G t.A.J.L.D.S.XX].7 6 J D J k c P.P._ Q Q Q Q b b b                           ",
"                                  K 0.y.S     U q.J.[.T.Y.J.R.{.g.5 w R R R A ) /.N.] ( ! Q G L                                 ",
"                                I n.#XI.| X.v.J.^.[.~.E.~. XI.a * P W E W j +.(.j.] ] ( !                                       ",
"                                u.e.z..XH.G.J.K.I.Q.[.].J.U & A 8.4.4.[ w f./.a.9.@.! Q                                         ",
"                              0 7.e.` D. XG.m.J.~.K.k.l 6 p 6.8.W 4.5.j q./.q.9.0.~                                             ",
"                                S 7.7.7.^..XG.u.l q i T r.p.r.4.4.4.j O.(.w.@.0._                                               ",
"                                6 ` 7.` 7.).|.l X A E 6.r.r.5.4.8.A v ).a.@.q.~                                                 ",
"                                  k 7.' ` e..X).a n K q p 6.5.5.W 0 ^.n.@.0. .                                                  ",
"                                  = ) ` X.7.y.+.m.[.).!.n p 5.5.e f.I.0.0.0.L                                                   ",
"                                    w X.7.u.U k.n.0.t.V.).i [ T k ).f.q.q.~                                                     ",
"                                      U u.I 0.u.i 0 0 7.K.| J i m.H.t.t.+.G                                                     ",
"                                      6 h X.u.0 ..).z l k.U i S /.f.d.f.~                                                       ",
"                                      $ { t.o.- t.^.l g y.a * t.H.u.c.#.                                                        ",
"                                      d t.| 0.i q g & ~ U ; = V.M.t.d.~                                                         ",
"                                    . <  .` X.d.z ; K o.l | a v.t.t.#.h                                                         ",
"                                  . 2 V d X.| o.u.0.o.l ..W.v.....#.{                                                           ",
"                                > V =.%.4 m 7.| | X.l L | m.W.v...#.K                                                           ",
"                              . $.3.`.3.,.N x 7.o.z K U U | m.W.v...k                                                           ",
"                            # 3 V =.<.-.-.4 . d l 9 U | | X.| G.!.v.l 0                                                         ",
"                        : . N ,.1.*.$.V 2 , .   %   y I X.| o. .C.!.b.L                                                         ",
"                    7 v < 1 B >.1.-.$.B ,             9 z | 7.X.| V.W.|                                                         ",
"                  : h ^ 1 ,.,.&.V 4 2 ,                 9 j U X.X.U U y                                                         ",
"                  h Y { f :.2.<.&.3 #                     9 y I ) F 9                                                           ",
"                r Y { { } 4 &.C 2 #                           9 g y                                                             ",
"                8 L  .~ Y } f > % :                                                                                             ",
"                  g Y K h l  .O.{ 0                                                                                             ",
"                  7 h F h y l I g                                                                                               ",
"                    7 h v l F a                                                                                                 ",
"                        r l g                                                                                                   ",
"                                                                                                                                ",
"                                                                                                                                ",
"                                                                                                                                ",
"                                                                                                                                ",
"                                                                                                                                ",
"                                                                                                                                ",
"                                                                                                                                ",
"                                                                                                                                ",
"                                                                                                                                "
};
